<?xml version="1.0" encoding="UTF-8" standalone="no"?><svg xmlns="http://www.w3.org/2000/svg" xmlns:xlink="http://www.w3.org/1999/xlink" contentScriptType="application/ecmascript" contentStyleType="text/css" height="433px" preserveAspectRatio="none" style="width:731px;height:433px;" version="1.1" viewBox="0 0 731 433" width="731px" zoomAndPan="magnify"><defs/><g><!--MD5=[ed1d20ea533a2a0e7df5ba3c35e56ced]
cluster Controllers--><path d="M25,24 L99,24 A4.5,4.5 0 0 1 102,27 L109,44.4844 L716,44.4844 A3,3 0 0 1 719,47.4844 L719,114 A3,3 0 0 1 716,117 L25,117 A3,3 0 0 1 22,114 L22,27 A3,3 0 0 1 25,24 " fill="#FFFFFF" style="stroke: #000000; stroke-width: 1.5;"/><line style="stroke: #000000; stroke-width: 1.5;" x1="22" x2="109" y1="44.4844" y2="44.4844"/><text fill="#000000" font-family="Tahoma, sans-serif" font-size="12" font-weight="bold" lengthAdjust="spacingAndGlyphs" textLength="74" x="26" y="38.0059">Controllers</text><!--MD5=[5edfa7121972f9ed9fbf0a4c690ab7d6]
cluster Domain entities--><path d="M219,247 L324,247 A4.5,4.5 0 0 1 327,250 L334,267.4844 L341,267.4844 A3,3 0 0 1 344,270.4844 L344,319 A3,3 0 0 1 341,322 L219,322 A3,3 0 0 1 216,319 L216,250 A3,3 0 0 1 219,247 " fill="#FFFFFF" style="stroke: #000000; stroke-width: 1.5;"/><line style="stroke: #000000; stroke-width: 1.5;" x1="216" x2="334" y1="267.4844" y2="267.4844"/><text fill="#000000" font-family="Tahoma, sans-serif" font-size="12" font-weight="bold" lengthAdjust="spacingAndGlyphs" textLength="105" x="220" y="261.0059">Domain entities</text><!--MD5=[3fe454f5ee662415b72b39d1d24abdcd]
cluster Domain value objects--><path d="M270,346 L415,346 A4.5,4.5 0 0 1 418,349 L425,366.4844 L629,366.4844 A3,3 0 0 1 632,369.4844 L632,418 A3,3 0 0 1 629,421 L270,421 A3,3 0 0 1 267,418 L267,349 A3,3 0 0 1 270,346 " fill="#FFFFFF" style="stroke: #000000; stroke-width: 1.5;"/><line style="stroke: #000000; stroke-width: 1.5;" x1="267" x2="425" y1="366.4844" y2="366.4844"/><text fill="#000000" font-family="Tahoma, sans-serif" font-size="12" font-weight="bold" lengthAdjust="spacingAndGlyphs" textLength="145" x="271" y="360.0059">Domain value objects</text><!--MD5=[600c2d25b6889bd4e9f6b335204b22ae]
cluster Repositories--><path d="M104,142.5 L188,142.5 A4.5,4.5 0 0 1 191,145.5 L198,162.9844 L254,162.9844 A3,3 0 0 1 257,165.9844 L257,218.5 A3,3 0 0 1 254,221.5 L104,221.5 A3,3 0 0 1 101,218.5 L101,145.5 A3,3 0 0 1 104,142.5 " fill="#FFFFFF" style="stroke: #000000; stroke-width: 1.5;"/><line style="stroke: #000000; stroke-width: 1.5;" x1="101" x2="198" y1="162.9844" y2="162.9844"/><text fill="#000000" font-family="Tahoma, sans-serif" font-size="12" font-weight="bold" lengthAdjust="spacingAndGlyphs" textLength="84" x="105" y="156.5059">Repositories</text><!--MD5=[6326b81c113285a9d7424a8f38b27174]
cluster Usecases--><path d="M333,141 L398,141 A4.5,4.5 0 0 1 401,144 L408,161.4844 L715,161.4844 A3,3 0 0 1 718,164.4844 L718,220 A3,3 0 0 1 715,223 L333,223 A3,3 0 0 1 330,220 L330,144 A3,3 0 0 1 333,141 " fill="#FFFFFF" style="stroke: #000000; stroke-width: 1.5;"/><line style="stroke: #000000; stroke-width: 1.5;" x1="330" x2="408" y1="161.4844" y2="161.4844"/><text fill="#000000" font-family="Tahoma, sans-serif" font-size="12" font-weight="bold" lengthAdjust="spacingAndGlyphs" textLength="65" x="334" y="155.0059">Usecases</text><ellipse cx="624.1593" cy="79.2319" fill="#F8F8F8" rx="79.1593" ry="18.2319" style="stroke: #383838; stroke-width: 0.5;"/><text fill="#000000" font-family="Tahoma, sans-serif" font-size="12" font-weight="bold" lengthAdjust="spacingAndGlyphs" textLength="134" x="557.1593" y="82.974">AuthorizerController</text><ellipse cx="104.0478" cy="79.0096" fill="#F8F8F8" rx="65.5478" ry="15.5096" style="stroke: #383838; stroke-width: 0.5;"/><text fill="#000000" font-family="Tahoma, sans-serif" font-size="12" font-weight="bold" lengthAdjust="spacingAndGlyphs" textLength="102" x="53.0478" y="82.7518">EventController</text><ellipse cx="279.7736" cy="78.7547" fill="#F8F8F8" rx="96.7736" ry="21.7547" style="stroke: #383838; stroke-width: 0.5;"/><text fill="#000000" font-family="Tahoma, sans-serif" font-size="12" font-weight="bold" lengthAdjust="spacingAndGlyphs" textLength="173" x="193.2736" y="82.4969">LastDeploymentController</text><ellipse cx="461.0295" cy="79.0059" fill="#F8F8F8" rx="70.5295" ry="16.5059" style="stroke: #383838; stroke-width: 0.5;"/><text fill="#000000" font-family="Tahoma, sans-serif" font-size="12" font-weight="bold" lengthAdjust="spacingAndGlyphs" textLength="114" x="404.0295" y="82.7481">MetricsController</text><ellipse cx="280.0477" cy="293.242" fill="#F8F8F8" rx="47.5477" ry="13.242" style="stroke: #383838; stroke-width: 0.5;"/><text fill="#000000" font-family="Tahoma, sans-serif" font-size="12" lengthAdjust="spacingAndGlyphs" textLength="63" x="248.5477" y="296.9842">Dorametrix</text><ellipse cx="464.9056" cy="392.242" fill="#F8F8F8" rx="33.4056" ry="13.242" style="stroke: #383838; stroke-width: 0.5;"/><text fill="#000000" font-family="Tahoma, sans-serif" font-size="12" lengthAdjust="spacingAndGlyphs" textLength="43" x="443.4056" y="395.9842">Change</text><ellipse cx="563.7904" cy="392.242" fill="#F8F8F8" rx="51.7904" ry="13.242" style="stroke: #383838; stroke-width: 0.5;"/><text fill="#000000" font-family="Tahoma, sans-serif" font-size="12" lengthAdjust="spacingAndGlyphs" textLength="69" x="529.2904" y="395.9842">Deployment</text><ellipse cx="307.9203" cy="392.242" fill="#F8F8F8" rx="24.9203" ry="13.242" style="stroke: #383838; stroke-width: 0.5;"/><text fill="#000000" font-family="Tahoma, sans-serif" font-size="12" lengthAdjust="spacingAndGlyphs" textLength="31" x="292.4203" y="395.9842">Event</text><ellipse cx="382.234" cy="392.242" fill="#F8F8F8" rx="36.234" ry="13.242" style="stroke: #383838; stroke-width: 0.5;"/><text fill="#000000" font-family="Tahoma, sans-serif" font-size="12" lengthAdjust="spacingAndGlyphs" textLength="47" x="358.734" y="395.9842">Incident</text><ellipse cx="178.9363" cy="190.2873" fill="#F8F8F8" rx="61.9363" ry="14.7873" style="stroke: #383838; stroke-width: 0.5;"/><text fill="#000000" font-family="Tahoma, sans-serif" font-size="12" lengthAdjust="spacingAndGlyphs" textLength="93" x="132.4363" y="194.0294">DynamoDbRepo</text><ellipse cx="396.8762" cy="190.742" fill="#F8F8F8" rx="50.3762" ry="13.242" style="stroke: #383838; stroke-width: 0.5;"/><text fill="#000000" font-family="Tahoma, sans-serif" font-size="12" lengthAdjust="spacingAndGlyphs" textLength="67" x="363.3762" y="194.4842">createEvent</text><ellipse cx="529.7683" cy="190.2537" fill="#F8F8F8" rx="69.2683" ry="16.2537" style="stroke: #383838; stroke-width: 0.5;"/><text fill="#000000" font-family="Tahoma, sans-serif" font-size="12" lengthAdjust="spacingAndGlyphs" textLength="111" x="474.2683" y="193.9958">getLastDeployment</text><ellipse cx="657.2193" cy="190.742" fill="#F8F8F8" rx="44.7193" ry="13.242" style="stroke: #383838; stroke-width: 0.5;"/><text fill="#000000" font-family="Tahoma, sans-serif" font-size="12" lengthAdjust="spacingAndGlyphs" textLength="59" x="627.7193" y="194.4842">getMetrics</text><!--MD5=[83abceae8bc59e5d450292c421665991]
link createEvent to Change--><path d="M401.151,203.679 C412.797,237.846 445.798,334.664 459.218,374.0353 " fill="none" id="createEvent-&gt;Change" style="stroke: #000000; stroke-width: 0.5;"/><polygon fill="#000000" points="460.903,378.9801,461.7853,369.1708,459.2898,374.2475,454.2132,371.752,460.903,378.9801" style="stroke: #000000; stroke-width: 0.5;"/><!--MD5=[c0921c5de82d20a584715f427310efb7]
link createEvent to Deployment--><path d="M407.823,203.5 C416.377,213.041 428.571,226.771 439,239 C480.668,287.859 528.528,346.9041 551.029,374.8442 " fill="none" id="createEvent-&gt;Deployment" style="stroke: #000000; stroke-width: 0.5;"/><polygon fill="#000000" points="554.418,379.055,551.892,369.5356,551.2834,375.1596,545.6594,374.551,554.418,379.055" style="stroke: #000000; stroke-width: 0.5;"/><!--MD5=[2a0e25f66cc57a15cab40b469349573a]
link createEvent to Event--><path d="M392.326,203.486 C382.826,227.654 360.347,283.866 339,330 C331.954,345.2283 323.245,362.2226 316.854,374.398 " fill="none" id="createEvent-&gt;Event" style="stroke: #000000; stroke-width: 0.5;"/><polygon fill="#000000" points="314.441,378.9765,322.1763,372.8802,316.7726,374.5534,315.0993,369.1497,314.441,378.9765" style="stroke: #000000; stroke-width: 0.5;"/><!--MD5=[418dccaf98ccfd49ca6939b263186030]
link createEvent to Incident--><path d="M396.084,203.679 C393.526,237.706 386.295,333.875 383.312,373.5503 " fill="none" id="createEvent-&gt;Incident" style="stroke: #000000; stroke-width: 0.5;"/><polygon fill="#000000" points="382.904,378.9801,387.5678,370.3055,383.279,373.9942,379.5903,369.7054,382.904,378.9801" style="stroke: #000000; stroke-width: 0.5;"/><!--MD5=[33048631ba65261db8c4cf58d9e1f2d8]
link <b>EventController</b> to createEvent--><path d="M121.472,94.118 C135.377,104.527 155.791,118.039 176,125 C208.113,136.062 218.995,124.985 252,133 C294.688,143.366 341.643,163.356 370.224,176.564 " fill="none" id="&lt;b&gt;EventController&lt;/b&gt;-&gt;createEvent" style="stroke: #000000; stroke-width: 1.0;"/><polygon fill="#000000" points="374.996,178.784,368.5247,171.3596,370.463,176.674,365.1486,178.6123,374.996,178.784" style="stroke: #000000; stroke-width: 1.0;"/><!--MD5=[f26eba65b1b2a1a36932dc406dc8882e]
link <b>EventController</b> to Dorametrix--><path d="M99.2025,94.565 C90.6154,123.607 76.1526,189.493 106,231 C133.723,269.552 187.741,283.908 228.272,289.164 " fill="none" id="&lt;b&gt;EventController&lt;/b&gt;-&gt;Dorametrix" style="stroke: #000000; stroke-width: 1.0;"/><polygon fill="#000000" points="233.646,289.818,225.1955,284.7595,228.6827,289.2137,224.2285,292.7009,233.646,289.818" style="stroke: #000000; stroke-width: 1.0;"/><!--MD5=[3c5b3b94e4ec14653cc762e6bc333fbc]
link <b>EventController</b> to DynamoDbRepo--><path d="M114.115,94.768 C127.703,114.606 151.837,149.842 166.532,171.297 " fill="none" id="&lt;b&gt;EventController&lt;/b&gt;-&gt;DynamoDbRepo" style="stroke: #000000; stroke-width: 1.0;"/><polygon fill="#000000" points="169.518,175.656,167.7309,165.9706,166.692,171.5313,161.1313,170.4923,169.518,175.656" style="stroke: #000000; stroke-width: 1.0;"/><!--MD5=[d7d4ba07ce126d6d60148c55adb082f5]
link <b>LastDeploymentController</b> to Dorametrix--><path d="M280,101.102 C280,143.028 280,236.09 280,274.697 " fill="none" id="&lt;b&gt;LastDeploymentController&lt;/b&gt;-&gt;Dorametrix" style="stroke: #000000; stroke-width: 1.0;"/><polygon fill="#000000" points="280,279.985,284,270.985,280,274.985,276,270.985,280,279.985" style="stroke: #000000; stroke-width: 1.0;"/><!--MD5=[0f756cb788b871a87673269b7c51770b]
link <b>LastDeploymentController</b> to DynamoDbRepo--><path d="M261.003,100.596 C242.038,121.156 213.205,152.416 195.265,171.866 " fill="none" id="&lt;b&gt;LastDeploymentController&lt;/b&gt;-&gt;DynamoDbRepo" style="stroke: #000000; stroke-width: 1.0;"/><polygon fill="#000000" points="191.829,175.592,200.871,171.6879,195.2188,171.9165,194.9902,166.2643,191.829,175.592" style="stroke: #000000; stroke-width: 1.0;"/><!--MD5=[042693883f038f2ab528f24028f7c402]
link <b>LastDeploymentController</b> to getLastDeployment--><path d="M317.558,99.447 C336.915,108.638 361.192,118.906 384,125 C414.252,133.083 424.88,121.486 454,133 C475.522,141.51 496.354,157.744 510.748,170.635 " fill="none" id="&lt;b&gt;LastDeploymentController&lt;/b&gt;-&gt;getLastDeployment" style="stroke: #000000; stroke-width: 1.0;"/><polygon fill="#000000" points="514.633,174.173,510.6724,165.1556,510.9363,170.8063,505.2856,171.0703,514.633,174.173" style="stroke: #000000; stroke-width: 1.0;"/><!--MD5=[0f9a7d1ae750ca5c738b42da0dea494c]
link <b>MetricsController</b> to Dorametrix--><path d="M440.159,94.796 C424.999,104.848 403.603,117.614 383,125 C362.641,132.298 351.521,119.043 335,133 C312.776,151.774 291.836,237.605 283.639,274.766 " fill="none" id="&lt;b&gt;MetricsController&lt;/b&gt;-&gt;Dorametrix" style="stroke: #000000; stroke-width: 1.0;"/><polygon fill="#000000" points="282.523,279.882,288.3474,271.94,283.5875,274.9966,280.5308,270.2367,282.523,279.882" style="stroke: #000000; stroke-width: 1.0;"/><!--MD5=[db9e0eeff1ea737b1d53c7ee0b1f2efa]
link <b>MetricsController</b> to DynamoDbRepo--><path d="M440.958,94.819 C425.84,105.16 404.155,118.27 383,125 C346.419,136.638 334,122.774 297,133 C263.751,142.19 228.421,160.361 205.182,173.623 " fill="none" id="&lt;b&gt;MetricsController&lt;/b&gt;-&gt;DynamoDbRepo" style="stroke: #000000; stroke-width: 1.0;"/><polygon fill="#000000" points="200.7,176.206,210.495,175.1776,205.032,173.7093,206.5003,168.2463,200.7,176.206" style="stroke: #000000; stroke-width: 1.0;"/><!--MD5=[abc0d92def58ff7884aed8372210ebbe]
link <b>MetricsController</b> to getMetrics--><path d="M481.416,94.873 C496.545,105.099 518.083,118.044 539,125 C567.457,134.464 579.368,119.213 606,133 C623.502,142.06 637.92,159.74 646.908,172.921 " fill="none" id="&lt;b&gt;MetricsController&lt;/b&gt;-&gt;getMetrics" style="stroke: #000000; stroke-width: 1.0;"/><polygon fill="#000000" points="649.745,177.2,648.1055,167.4886,646.9821,173.0327,641.4379,171.9093,649.745,177.2" style="stroke: #000000; stroke-width: 1.0;"/><script type="text/plantuml"><![CDATA[MD5=[10539db8610391c41a7c65948586c116]
@startuml

scale max 1920 width
top to bottom direction

skinparam nodesep 13
skinparam ranksep 27
skinparam monochrome true
skinparam shadowing false
skinparam defaultFontName Tahoma
skinparam defaultFontSize 12
skinparam roundCorner 6
skinparam dpi 150
skinparam arrowColor black
skinparam arrowThickness 0.5
skinparam packageTitleAlignment left

skinparam usecase {
  borderThickness 0.5
}

skinparam rectangle {
  borderThickness 0.5
}

skinparam component {
  borderThickness 1
}


package "Controllers" {
  (<b>AuthorizerController</b>)
  (<b>EventController</b>)
  (<b>LastDeploymentController</b>)
  (<b>MetricsController</b>)
}

package "Domain entities" {
  (Dorametrix)
}

package "Domain value objects" {
  (Change)
  (Deployment)
  (Event)
  (Incident)
}

package "Repositories" {
  (DynamoDbRepo)
}

package "Usecases" {
  (createEvent)
  (getLastDeployment)
  (getMetrics)
}

(createEvent) ---> (Change)
(createEvent) ---> (Deployment)
(createEvent) ---> (Event)
(createEvent) ---> (Incident)
(<b>EventController</b>) --[thickness=1]> (createEvent)
(<b>EventController</b>) ---[thickness=1]> (Dorametrix)
(<b>EventController</b>) --[thickness=1]> (DynamoDbRepo)
(<b>LastDeploymentController</b>) ---[thickness=1]> (Dorametrix)
(<b>LastDeploymentController</b>) --[thickness=1]> (DynamoDbRepo)
(<b>LastDeploymentController</b>) --[thickness=1]> (getLastDeployment)
(<b>MetricsController</b>) ---[thickness=1]> (Dorametrix)
(<b>MetricsController</b>) --[thickness=1]> (DynamoDbRepo)
(<b>MetricsController</b>) --[thickness=1]> (getMetrics)

@enduml


' View and edit on https://arkit.pro
]]></script></g></svg>