<?xml version="1.0" encoding="UTF-8" standalone="no"?><svg xmlns="http://www.w3.org/2000/svg" xmlns:xlink="http://www.w3.org/1999/xlink" contentScriptType="application/ecmascript" contentStyleType="text/css" height="458px" preserveAspectRatio="none" style="width:858px;height:458px;" version="1.1" viewBox="0 0 858 458" width="858px" zoomAndPan="magnify"><defs/><g><!--MD5=[8d58eb440f887f21433e844bf2601dc8]
cluster Handlers/adapters--><path d="M162,24 L298,24 A4.5,4.5 0 0 1 301,27 L308,43.9688 L843,43.9688 A3,3 0 0 1 846,46.9688 L846,113 A3,3 0 0 1 843,116 L162,116 A3,3 0 0 1 159,113 L159,27 A3,3 0 0 1 162,24 " fill="#FFFFFF" style="stroke: #000000; stroke-width: 1.5;"/><line style="stroke: #000000; stroke-width: 1.5;" x1="159" x2="308" y1="43.9688" y2="43.9688"/><text fill="#000000" font-family="Tahoma, sans-serif" font-size="12" font-weight="bold" lengthAdjust="spacingAndGlyphs" textLength="136" x="163" y="37.1387">Handlers/adapters</text><!--MD5=[40917519a219363998a5704983d04c91]
cluster Domain services--><path d="M429,372 L547,372 A4.5,4.5 0 0 1 550,375 L557,391.9688 L559,391.9688 A3,3 0 0 1 562,394.9688 L562,443 A3,3 0 0 1 559,446 L429,446 A3,3 0 0 1 426,443 L426,375 A3,3 0 0 1 429,372 " fill="#FFFFFF" style="stroke: #000000; stroke-width: 1.5;"/><line style="stroke: #000000; stroke-width: 1.5;" x1="426" x2="557" y1="391.9688" y2="391.9688"/><text fill="#000000" font-family="Tahoma, sans-serif" font-size="12" font-weight="bold" lengthAdjust="spacingAndGlyphs" textLength="118" x="430" y="385.1387">Domain services</text><!--MD5=[3fe454f5ee662415b72b39d1d24abdcd]
cluster Domain value objects--><path d="M25,261 L179,261 A4.5,4.5 0 0 1 182,264 L189,280.9688 L189,280.9688 A3,3 0 0 1 192,283.9688 L192,332 A3,3 0 0 1 189,335 L25,335 A3,3 0 0 1 22,332 L22,264 A3,3 0 0 1 25,261 " fill="#FFFFFF" style="stroke: #000000; stroke-width: 1.5;"/><line style="stroke: #000000; stroke-width: 1.5;" x1="22" x2="189" y1="280.9688" y2="280.9688"/><text fill="#000000" font-family="Tahoma, sans-serif" font-size="12" font-weight="bold" lengthAdjust="spacingAndGlyphs" textLength="154" x="26" y="274.1387">Domain value objects</text><!--MD5=[600c2d25b6889bd4e9f6b335204b22ae]
cluster Repositories--><path d="M161,149 L253,149 A4.5,4.5 0 0 1 256,152 L263,168.9688 L345,168.9688 A3,3 0 0 1 348,171.9688 L348,230 A3,3 0 0 1 345,233 L161,233 A3,3 0 0 1 158,230 L158,152 A3,3 0 0 1 161,149 " fill="#FFFFFF" style="stroke: #000000; stroke-width: 1.5;"/><line style="stroke: #000000; stroke-width: 1.5;" x1="158" x2="263" y1="168.9688" y2="168.9688"/><text fill="#000000" font-family="Tahoma, sans-serif" font-size="12" font-weight="bold" lengthAdjust="spacingAndGlyphs" textLength="92" x="162" y="162.1387">Repositories</text><!--MD5=[6326b81c113285a9d7424a8f38b27174]
cluster Usecases--><path d="M247,257 L315,257 A4.5,4.5 0 0 1 318,260 L325,276.9688 L653,276.9688 A3,3 0 0 1 656,279.9688 L656,336 A3,3 0 0 1 653,339 L247,339 A3,3 0 0 1 244,336 L244,260 A3,3 0 0 1 247,257 " fill="#FFFFFF" style="stroke: #000000; stroke-width: 1.5;"/><line style="stroke: #000000; stroke-width: 1.5;" x1="244" x2="325" y1="276.9688" y2="276.9688"/><text fill="#000000" font-family="Tahoma, sans-serif" font-size="12" font-weight="bold" lengthAdjust="spacingAndGlyphs" textLength="68" x="248" y="270.1387">Usecases</text><ellipse cx="750.9986" cy="78.1997" fill="#F8F8F8" rx="78.9986" ry="18.1997" style="stroke: #383838; stroke-width: 0.5;"/><text fill="#000000" font-family="Tahoma, sans-serif" font-size="12" font-weight="bold" lengthAdjust="spacingAndGlyphs" textLength="135" x="683.4986" y="81.6841">AuthorizerHandler</text><ellipse cx="238.1709" cy="78.0342" fill="#F8F8F8" rx="63.1709" ry="15.0342" style="stroke: #383838; stroke-width: 0.5;"/><text fill="#000000" font-family="Tahoma, sans-serif" font-size="12" font-weight="bold" lengthAdjust="spacingAndGlyphs" textLength="98" x="189.1709" y="81.5186">EventHandler</text><ellipse cx="411.2114" cy="77.8423" fill="#F8F8F8" rx="97.2114" ry="21.8423" style="stroke: #383838; stroke-width: 0.5;"/><text fill="#000000" font-family="Tahoma, sans-serif" font-size="12" font-weight="bold" lengthAdjust="spacingAndGlyphs" textLength="175" x="323.7114" y="81.3267">LastDeploymentHandler</text><ellipse cx="589.9965" cy="78.1993" fill="#F8F8F8" rx="68.9965" ry="16.1993" style="stroke: #383838; stroke-width: 0.5;"/><text fill="#000000" font-family="Tahoma, sans-serif" font-size="12" font-weight="bold" lengthAdjust="spacingAndGlyphs" textLength="112" x="533.9965" y="81.6837">MetricsHandler</text><ellipse cx="493.7904" cy="416.8774" fill="#F8F8F8" rx="51.7904" ry="12.8774" style="stroke: #383838; stroke-width: 0.5;"/><text fill="#000000" font-family="Tahoma, sans-serif" font-size="12" lengthAdjust="spacingAndGlyphs" textLength="69" x="459.2904" y="420.3618">Dorametrix</text><ellipse cx="135.0416" cy="305.8774" fill="#F8F8F8" rx="27.0416" ry="12.8774" style="stroke: #383838; stroke-width: 0.5;"/><text fill="#000000" font-family="Tahoma, sans-serif" font-size="12" lengthAdjust="spacingAndGlyphs" textLength="34" x="118.0416" y="309.3618">Event</text><ellipse cx="252.9986" cy="199.1997" fill="#F8F8F8" rx="78.9986" ry="18.1997" style="stroke: #383838; stroke-width: 0.5;"/><text fill="#000000" font-family="Tahoma, sans-serif" font-size="12" lengthAdjust="spacingAndGlyphs" textLength="135" x="185.4986" y="202.6841">DynamoDbRepository</text><ellipse cx="314.2424" cy="306.2485" fill="#F8F8F8" rx="54.2424" ry="13.2485" style="stroke: #383838; stroke-width: 0.5;"/><text fill="#000000" font-family="Tahoma, sans-serif" font-size="12" lengthAdjust="spacingAndGlyphs" textLength="75" x="276.7424" y="309.7329">createEvent</text><ellipse cx="453.8555" cy="305.9711" fill="#F8F8F8" rx="72.8555" ry="16.9711" style="stroke: #383838; stroke-width: 0.5;"/><text fill="#000000" font-family="Tahoma, sans-serif" font-size="12" lengthAdjust="spacingAndGlyphs" textLength="121" x="393.3555" y="309.4555">getLastDeployment</text><ellipse cx="590.169" cy="305.8774" fill="#F8F8F8" rx="49.669" ry="12.8774" style="stroke: #383838; stroke-width: 0.5;"/><text fill="#000000" font-family="Tahoma, sans-serif" font-size="12" lengthAdjust="spacingAndGlyphs" textLength="66" x="557.169" y="309.3618">getMetrics</text><!--MD5=[2ac538572c49dda796f784962936fda8]
link <b>EventHandler</b> to createEvent--><path d="M256.896,92.329 C270.524,101.691 289.521,114.234 307,124 C322.447,132.631 333.529,126.054 343,141 C372.675,187.83 341.628,256.512 324.173,288.04 " fill="none" id="&lt;b&gt;EventHandler&lt;/b&gt;-&gt;createEvent" style="stroke: #000000; stroke-width: 1.0;"/><polygon fill="#000000" points="321.5,292.773,329.4096,286.9046,323.9594,288.4197,322.4444,282.9695,321.5,292.773" style="stroke: #000000; stroke-width: 1.0;"/><!--MD5=[4b5255c06d5f3a4342aec3756d83218a]
link <b>EventHandler</b> to DynamoDbRepository--><path d="M239.78,93.118 C242.348,113.495 247.12,151.354 250.174,175.578 " fill="none" id="&lt;b&gt;EventHandler&lt;/b&gt;-&gt;DynamoDbRepository" style="stroke: #000000; stroke-width: 1.0;"/><polygon fill="#000000" points="250.835,180.827,253.6771,171.3971,250.2092,175.8663,245.74,172.3984,250.835,180.827" style="stroke: #000000; stroke-width: 1.0;"/><!--MD5=[ce4e89b02986c83ffd26484e64d8ae95]
link <b>EventHandler</b> to Event--><path d="M214.491,92.127 C197.391,102.959 175.184,119.944 163,141 C135.377,188.74 133.384,256.507 134.154,287.863 " fill="none" id="&lt;b&gt;EventHandler&lt;/b&gt;-&gt;Event" style="stroke: #000000; stroke-width: 1.0;"/><polygon fill="#000000" points="134.311,292.928,138.0287,283.8078,134.1553,287.9304,130.0326,284.0569,134.311,292.928" style="stroke: #000000; stroke-width: 1.0;"/><!--MD5=[3a0c44bfae1ff637d491d275c10eb228]
link getLastDeployment to Dorametrix--><path d="M459.902,323.083 C467.386,343.478 480.23,378.4755 487.836,399.2037 " fill="none" id="getLastDeployment-&gt;Dorametrix" style="stroke: #000000; stroke-width: 0.5;"/><polygon fill="#000000" points="489.559,403.899,490.2138,394.0719,487.8366,399.205,482.7034,396.8278,489.559,403.899" style="stroke: #000000; stroke-width: 0.5;"/><!--MD5=[e30ef3fbb7c04e4137f58dfe26d99929]
link getMetrics to Dorametrix--><path d="M579.36,319.081 C561.896,338.91 527.165,378.3441 507.821,400.3069 " fill="none" id="getMetrics-&gt;Dorametrix" style="stroke: #000000; stroke-width: 0.5;"/><polygon fill="#000000" points="504.396,404.1958,513.3466,400.0865,507.7011,400.4439,507.3437,394.7984,504.396,404.1958" style="stroke: #000000; stroke-width: 0.5;"/><!--MD5=[0b8c516999ab2e39f75e38ead90b8dfb]
link <b>LastDeploymentHandler</b> to DynamoDbRepository--><path d="M384.197,99.187 C354.827,121.308 308.033,156.551 278.989,178.426 " fill="none" id="&lt;b&gt;LastDeploymentHandler&lt;/b&gt;-&gt;DynamoDbRepository" style="stroke: #000000; stroke-width: 1.0;"/><polygon fill="#000000" points="274.837,181.553,284.4325,179.3333,278.8308,178.5448,279.6193,172.9431,274.837,181.553" style="stroke: #000000; stroke-width: 1.0;"/><!--MD5=[0df50d6896a2143877f62503ebba156f]
link <b>LastDeploymentHandler</b> to getLastDeployment--><path d="M415.045,100.262 C423.262,143.448 441.818,240.974 449.998,283.967 " fill="none" id="&lt;b&gt;LastDeploymentHandler&lt;/b&gt;-&gt;getLastDeployment" style="stroke: #000000; stroke-width: 1.0;"/><polygon fill="#000000" points="450.943,288.933,453.1907,279.344,450.0086,284.0211,445.3316,280.8391,450.943,288.933" style="stroke: #000000; stroke-width: 1.0;"/><!--MD5=[f32b520e205a58050cb94efd05a9a95d]
link <b>MetricsHandler</b> to DynamoDbRepository--><path d="M569.463,93.361 C554.822,103.081 534.376,115.628 515,124 C449.114,152.468 369.206,173.2 315.093,185.357 " fill="none" id="&lt;b&gt;MetricsHandler&lt;/b&gt;-&gt;DynamoDbRepository" style="stroke: #000000; stroke-width: 1.0;"/><polygon fill="#000000" points="309.938,186.507,319.593,188.4516,314.8181,185.4184,317.8512,180.6435,309.938,186.507" style="stroke: #000000; stroke-width: 1.0;"/><!--MD5=[1dab1f4d4661e857e79bc2399234ee07]
link <b>MetricsHandler</b> to getMetrics--><path d="M590,94.179 C590,134.706 590,245.258 590,287.904 " fill="none" id="&lt;b&gt;MetricsHandler&lt;/b&gt;-&gt;getMetrics" style="stroke: #000000; stroke-width: 1.0;"/><polygon fill="#000000" points="590,292.992,594,283.992,590,287.992,586,283.992,590,292.992" style="stroke: #000000; stroke-width: 1.0;"/><script type="text/plantuml"><![CDATA[MD5=[4c822bcb49b42eff7e9ca468591b726c]
@startuml

scale max 1920 width
top to bottom direction

skinparam nodesep 13
skinparam ranksep 25
skinparam monochrome true
skinparam shadowing false
skinparam defaultFontName Tahoma
skinparam defaultFontSize 12
skinparam roundCorner 6
skinparam dpi 150
skinparam arrowColor black
skinparam arrowThickness 0.5
skinparam packageTitleAlignment left

skinparam usecase {
  borderThickness 0.5
}

skinparam rectangle {
  borderThickness 0.5
}

skinparam component {
  borderThickness 1
}


package "Handlers/adapters" {
  (<b>AuthorizerHandler</b>)
  (<b>EventHandler</b>)
  (<b>LastDeploymentHandler</b>)
  (<b>MetricsHandler</b>)
}

package "Domain services" {
  (Dorametrix)
}

package "Domain value objects" {
  (Event)
}

package "Repositories" {
  (DynamoDbRepository)
}

package "Usecases" {
  (createEvent)
  (getLastDeployment)
  (getMetrics)
}

(<b>EventHandler</b>) ----[thickness=1]> (createEvent)
(<b>EventHandler</b>) ---[thickness=1]> (DynamoDbRepository)
(<b>EventHandler</b>) ----[thickness=1]> (Event)
(getLastDeployment) ---> (Dorametrix)
(getMetrics) ---> (Dorametrix)
(<b>LastDeploymentHandler</b>) ---[thickness=1]> (DynamoDbRepository)
(<b>LastDeploymentHandler</b>) ----[thickness=1]> (getLastDeployment)
(<b>MetricsHandler</b>) ---[thickness=1]> (DynamoDbRepository)
(<b>MetricsHandler</b>) ----[thickness=1]> (getMetrics)

@enduml


' View and edit on https://arkit.pro
]]></script></g></svg>