<?xml version="1.0" encoding="UTF-8" standalone="no"?><svg xmlns="http://www.w3.org/2000/svg" xmlns:xlink="http://www.w3.org/1999/xlink" contentScriptType="application/ecmascript" contentStyleType="text/css" height="452px" preserveAspectRatio="none" style="width:753px;height:452px;" version="1.1" viewBox="0 0 753 452" width="753px" zoomAndPan="magnify"><defs/><g><!--MD5=[8d58eb440f887f21433e844bf2601dc8]
cluster Handlers/adapters--><path d="M180,24 L316,24 A4.5,4.5 0 0 1 319,27 L326,43.9688 L738,43.9688 A3,3 0 0 1 741,46.9688 L741,107 A3,3 0 0 1 738,110 L180,110 A3,3 0 0 1 177,107 L177,27 A3,3 0 0 1 180,24 " fill="#FFFFFF" style="stroke: #000000; stroke-width: 1.5;"/><line style="stroke: #000000; stroke-width: 1.5;" x1="177" x2="326" y1="43.9688" y2="43.9688"/><text fill="#000000" font-family="Tahoma, sans-serif" font-size="12" font-weight="bold" lengthAdjust="spacingAndGlyphs" textLength="136" x="181" y="37.1387">Handlers/adapters</text><!--MD5=[40917519a219363998a5704983d04c91]
cluster Domain services--><path d="M401,366 L519,366 A4.5,4.5 0 0 1 522,369 L529,385.9688 L531,385.9688 A3,3 0 0 1 534,388.9688 L534,437 A3,3 0 0 1 531,440 L401,440 A3,3 0 0 1 398,437 L398,369 A3,3 0 0 1 401,366 " fill="#FFFFFF" style="stroke: #000000; stroke-width: 1.5;"/><line style="stroke: #000000; stroke-width: 1.5;" x1="398" x2="529" y1="385.9688" y2="385.9688"/><text fill="#000000" font-family="Tahoma, sans-serif" font-size="12" font-weight="bold" lengthAdjust="spacingAndGlyphs" textLength="118" x="402" y="379.1387">Domain services</text><!--MD5=[3fe454f5ee662415b72b39d1d24abdcd]
cluster Domain value objects--><path d="M25,255 L179,255 A4.5,4.5 0 0 1 182,258 L189,274.9688 L189,274.9688 A3,3 0 0 1 192,277.9688 L192,326 A3,3 0 0 1 189,329 L25,329 A3,3 0 0 1 22,326 L22,258 A3,3 0 0 1 25,255 " fill="#FFFFFF" style="stroke: #000000; stroke-width: 1.5;"/><line style="stroke: #000000; stroke-width: 1.5;" x1="22" x2="189" y1="274.9688" y2="274.9688"/><text fill="#000000" font-family="Tahoma, sans-serif" font-size="12" font-weight="bold" lengthAdjust="spacingAndGlyphs" textLength="154" x="26" y="268.1387">Domain value objects</text><!--MD5=[600c2d25b6889bd4e9f6b335204b22ae]
cluster Repositories--><path d="M270,143 L362,143 A4.5,4.5 0 0 1 365,146 L372,162.9688 L454,162.9688 A3,3 0 0 1 457,165.9688 L457,224 A3,3 0 0 1 454,227 L270,227 A3,3 0 0 1 267,224 L267,146 A3,3 0 0 1 270,143 " fill="#FFFFFF" style="stroke: #000000; stroke-width: 1.5;"/><line style="stroke: #000000; stroke-width: 1.5;" x1="267" x2="372" y1="162.9688" y2="162.9688"/><text fill="#000000" font-family="Tahoma, sans-serif" font-size="12" font-weight="bold" lengthAdjust="spacingAndGlyphs" textLength="92" x="271" y="156.1387">Repositories</text><!--MD5=[6326b81c113285a9d7424a8f38b27174]
cluster Usecases--><path d="M219,251 L287,251 A4.5,4.5 0 0 1 290,254 L297,270.9688 L726,270.9688 A3,3 0 0 1 729,273.9688 L729,330 A3,3 0 0 1 726,333 L219,333 A3,3 0 0 1 216,330 L216,254 A3,3 0 0 1 219,251 " fill="#FFFFFF" style="stroke: #000000; stroke-width: 1.5;"/><line style="stroke: #000000; stroke-width: 1.5;" x1="216" x2="297" y1="270.9688" y2="270.9688"/><text fill="#000000" font-family="Tahoma, sans-serif" font-size="12" font-weight="bold" lengthAdjust="spacingAndGlyphs" textLength="68" x="220" y="264.1387">Usecases</text><ellipse cx="244.0833" cy="74.8774" fill="#F8F8F8" rx="51.0833" ry="12.8774" style="stroke: #383838; stroke-width: 0.5;"/><text fill="#000000" font-family="Tahoma, sans-serif" font-size="12" font-weight="bold" lengthAdjust="spacingAndGlyphs" textLength="68" x="210.0833" y="78.3618">AddEvent</text><ellipse cx="668.8501" cy="74.97" fill="#F8F8F8" rx="55.3501" ry="13.47" style="stroke: #383838; stroke-width: 0.5;"/><text fill="#000000" font-family="Tahoma, sans-serif" font-size="12" font-weight="bold" lengthAdjust="spacingAndGlyphs" textLength="78" x="629.8501" y="78.4544">Authorizer</text><ellipse cx="391.0221" cy="75.0044" fill="#F8F8F8" rx="83.0221" ry="19.0044" style="stroke: #383838; stroke-width: 0.5;"/><text fill="#000000" font-family="Tahoma, sans-serif" font-size="12" font-weight="bold" lengthAdjust="spacingAndGlyphs" textLength="144" x="319.0221" y="78.4888">GetLastDeployment</text><ellipse cx="543.977" cy="75.1954" fill="#F8F8F8" rx="56.477" ry="13.6954" style="stroke: #383838; stroke-width: 0.5;"/><text fill="#000000" font-family="Tahoma, sans-serif" font-size="12" font-weight="bold" lengthAdjust="spacingAndGlyphs" textLength="81" x="503.477" y="78.6798">GetMetrics</text><ellipse cx="465.7904" cy="410.8774" fill="#F8F8F8" rx="51.7904" ry="12.8774" style="stroke: #383838; stroke-width: 0.5;"/><text fill="#000000" font-family="Tahoma, sans-serif" font-size="12" lengthAdjust="spacingAndGlyphs" textLength="69" x="431.2904" y="414.3618">Dorametrix</text><ellipse cx="149.0416" cy="299.8774" fill="#F8F8F8" rx="27.0416" ry="12.8774" style="stroke: #383838; stroke-width: 0.5;"/><text fill="#000000" font-family="Tahoma, sans-serif" font-size="12" lengthAdjust="spacingAndGlyphs" textLength="34" x="132.0416" y="303.3618">Event</text><ellipse cx="361.9986" cy="193.1997" fill="#F8F8F8" rx="78.9986" ry="18.1997" style="stroke: #383838; stroke-width: 0.5;"/><text fill="#000000" font-family="Tahoma, sans-serif" font-size="12" lengthAdjust="spacingAndGlyphs" textLength="135" x="294.4986" y="196.6841">DynamoDbRepository</text><ellipse cx="669.0122" cy="299.8774" fill="#F8F8F8" rx="44.0122" ry="12.8774" style="stroke: #383838; stroke-width: 0.5;"/><text fill="#000000" font-family="Tahoma, sans-serif" font-size="12" lengthAdjust="spacingAndGlyphs" textLength="58" x="640.0122" y="303.3618">authorize</text><ellipse cx="286.2424" cy="300.2485" fill="#F8F8F8" rx="54.2424" ry="13.2485" style="stroke: #383838; stroke-width: 0.5;"/><text fill="#000000" font-family="Tahoma, sans-serif" font-size="12" lengthAdjust="spacingAndGlyphs" textLength="75" x="248.7424" y="303.7329">createEvent</text><ellipse cx="425.8555" cy="299.9711" fill="#F8F8F8" rx="72.8555" ry="16.9711" style="stroke: #383838; stroke-width: 0.5;"/><text fill="#000000" font-family="Tahoma, sans-serif" font-size="12" lengthAdjust="spacingAndGlyphs" textLength="121" x="365.3555" y="303.4555">getLastDeployment</text><ellipse cx="562.169" cy="299.8774" fill="#F8F8F8" rx="49.669" ry="12.8774" style="stroke: #383838; stroke-width: 0.5;"/><text fill="#000000" font-family="Tahoma, sans-serif" font-size="12" lengthAdjust="spacingAndGlyphs" textLength="66" x="529.169" y="303.3618">getMetrics</text><!--MD5=[d4d4e91abe83897258e60d35d41028dd]
link <b>AddEvent</b> to createEvent--><path d="M245.94,87.999 C250.272,114.554 261.201,180.278 272,235 C275.121,250.817 279.078,268.74 281.989,281.588 " fill="none" id="&lt;b&gt;AddEvent&lt;/b&gt;-&gt;createEvent" style="stroke: #000000; stroke-width: 1.0;"/><polygon fill="#000000" points="283.166,286.762,285.0684,277.0986,282.0561,281.8867,277.268,278.8745,283.166,286.762" style="stroke: #000000; stroke-width: 1.0;"/><!--MD5=[23a05f78fb5b4b085507427af03855d0]
link <b>AddEvent</b> to DynamoDbRepository--><path d="M256.184,87.977 C276.194,107.648 316.255,147.031 340.937,171.294 " fill="none" id="&lt;b&gt;AddEvent&lt;/b&gt;-&gt;DynamoDbRepository" style="stroke: #000000; stroke-width: 1.0;"/><polygon fill="#000000" points="344.761,175.053,341.1476,165.8909,341.1956,171.5476,335.5389,171.5956,344.761,175.053" style="stroke: #000000; stroke-width: 1.0;"/><!--MD5=[ec6ed4bb617ec0fec2cf85d25fa6a1a1]
link <b>AddEvent</b> to Event--><path d="M238.892,87.989 C222.972,125.36 174.228,239.781 155.987,282.599 " fill="none" id="&lt;b&gt;AddEvent&lt;/b&gt;-&gt;Event" style="stroke: #000000; stroke-width: 1.0;"/><polygon fill="#000000" points="154.018,287.222,161.2258,280.5102,155.9779,282.6221,153.866,277.3743,154.018,287.222" style="stroke: #000000; stroke-width: 1.0;"/><!--MD5=[c320ebab811e524a74982c0bf1e61fc1]
link <b>Authorizer</b> to authorize--><path d="M669,88.628 C669,126.357 669,238.3 669,281.614 " fill="none" id="&lt;b&gt;Authorizer&lt;/b&gt;-&gt;authorize" style="stroke: #000000; stroke-width: 1.0;"/><polygon fill="#000000" points="669,286.784,673,277.784,669,281.784,665,277.784,669,286.784" style="stroke: #000000; stroke-width: 1.0;"/><!--MD5=[3a0c44bfae1ff637d491d275c10eb228]
link getLastDeployment to Dorametrix--><path d="M431.902,317.083 C439.386,337.478 452.23,372.4755 459.836,393.2037 " fill="none" id="getLastDeployment-&gt;Dorametrix" style="stroke: #000000; stroke-width: 0.5;"/><polygon fill="#000000" points="461.559,397.899,462.2138,388.0719,459.8366,393.205,454.7034,390.8278,461.559,397.899" style="stroke: #000000; stroke-width: 0.5;"/><!--MD5=[585fd1502d0d7df48f8358740eb60224]
link <b>GetLastDeployment</b> to DynamoDbRepository--><path d="M386.469,94.125 C381.366,114.536 373.071,147.717 367.575,169.7 " fill="none" id="&lt;b&gt;GetLastDeployment&lt;/b&gt;-&gt;DynamoDbRepository" style="stroke: #000000; stroke-width: 1.0;"/><polygon fill="#000000" points="366.31,174.759,372.3734,166.9979,367.5227,169.9083,364.6123,165.0576,366.31,174.759" style="stroke: #000000; stroke-width: 1.0;"/><!--MD5=[bcae8591c8ee133b2e701f6095ccdcb4]
link <b>GetLastDeployment</b> to getLastDeployment--><path d="M416.924,93.217 C430.099,103.58 444.811,118.044 452,135 C472.509,183.37 450.64,245.988 436.337,278.053 " fill="none" id="&lt;b&gt;GetLastDeployment&lt;/b&gt;-&gt;getLastDeployment" style="stroke: #000000; stroke-width: 1.0;"/><polygon fill="#000000" points="434.114,282.93,441.487,276.4001,436.1881,278.3805,434.2077,273.0816,434.114,282.93" style="stroke: #000000; stroke-width: 1.0;"/><!--MD5=[e30ef3fbb7c04e4137f58dfe26d99929]
link getMetrics to Dorametrix--><path d="M551.36,313.081 C533.896,332.91 499.165,372.3441 479.821,394.3069 " fill="none" id="getMetrics-&gt;Dorametrix" style="stroke: #000000; stroke-width: 0.5;"/><polygon fill="#000000" points="476.396,398.1958,485.3466,394.0865,479.7011,394.4439,479.3437,388.7984,476.396,398.1958" style="stroke: #000000; stroke-width: 0.5;"/><!--MD5=[b54613dbdce505f468908134a8f8d923]
link <b>GetMetrics</b> to DynamoDbRepository--><path d="M526.447,87.918 C513.863,96.409 496.472,108.035 481,118 C451.347,137.097 417.115,158.297 393.001,173.093 " fill="none" id="&lt;b&gt;GetMetrics&lt;/b&gt;-&gt;DynamoDbRepository" style="stroke: #000000; stroke-width: 1.0;"/><polygon fill="#000000" points="388.619,175.78,398.3826,174.4871,392.8819,173.1671,394.202,167.6664,388.619,175.78" style="stroke: #000000; stroke-width: 1.0;"/><!--MD5=[2f9dc93f470c0f350321dbe1a70d98eb]
link <b>GetMetrics</b> to getMetrics--><path d="M545.019,88.628 C548.065,126.357 557.1,238.3 560.597,281.614 " fill="none" id="&lt;b&gt;GetMetrics&lt;/b&gt;-&gt;getMetrics" style="stroke: #000000; stroke-width: 1.0;"/><polygon fill="#000000" points="561.014,286.784,564.2759,277.491,560.6112,281.8003,556.3019,278.1355,561.014,286.784" style="stroke: #000000; stroke-width: 1.0;"/><script type="text/plantuml"><![CDATA[MD5=[56e7aaafa685db01f0646c26ee4c8638]
@startuml

scale max 1920 width
top to bottom direction

skinparam nodesep 13
skinparam ranksep 26
skinparam monochrome true
skinparam shadowing false
skinparam defaultFontName Tahoma
skinparam defaultFontSize 12
skinparam roundCorner 6
skinparam dpi 150
skinparam arrowColor black
skinparam arrowThickness 0.5
skinparam packageTitleAlignment left

skinparam usecase {
  borderThickness 0.5
}

skinparam rectangle {
  borderThickness 0.5
}

skinparam component {
  borderThickness 1
}


package "Handlers/adapters" {
  (<b>AddEvent</b>)
  (<b>Authorizer</b>)
  (<b>GetLastDeployment</b>)
  (<b>GetMetrics</b>)
}

package "Domain services" {
  (Dorametrix)
}

package "Domain value objects" {
  (Event)
}

package "Repositories" {
  (DynamoDbRepository)
}

package "Usecases" {
  (authorize)
  (createEvent)
  (getLastDeployment)
  (getMetrics)
}

(<b>AddEvent</b>) ----[thickness=1]> (createEvent)
(<b>AddEvent</b>) ---[thickness=1]> (DynamoDbRepository)
(<b>AddEvent</b>) ----[thickness=1]> (Event)
(<b>Authorizer</b>) ----[thickness=1]> (authorize)
(getLastDeployment) ---> (Dorametrix)
(<b>GetLastDeployment</b>) ---[thickness=1]> (DynamoDbRepository)
(<b>GetLastDeployment</b>) ----[thickness=1]> (getLastDeployment)
(getMetrics) ---> (Dorametrix)
(<b>GetMetrics</b>) ---[thickness=1]> (DynamoDbRepository)
(<b>GetMetrics</b>) ----[thickness=1]> (getMetrics)

@enduml


' View and edit on https://arkit.pro
]]></script></g></svg>