<?xml version="1.0" encoding="UTF-8" standalone="no"?><svg xmlns="http://www.w3.org/2000/svg" xmlns:xlink="http://www.w3.org/1999/xlink" contentScriptType="application/ecmascript" contentStyleType="text/css" height="433px" preserveAspectRatio="none" style="width:784px;height:433px;" version="1.1" viewBox="0 0 784 433" width="784px" zoomAndPan="magnify"><defs/><g><!--MD5=[ed1d20ea533a2a0e7df5ba3c35e56ced]
cluster Controllers--><path d="M25,24 L107,24 A4.5,4.5 0 0 1 110,27 L117,43.9688 L769,43.9688 A3,3 0 0 1 772,46.9688 L772,116 A3,3 0 0 1 769,119 L25,119 A3,3 0 0 1 22,116 L22,27 A3,3 0 0 1 25,24 " fill="#FFFFFF" style="stroke: #000000; stroke-width: 1.5;"/><line style="stroke: #000000; stroke-width: 1.5;" x1="22" x2="117" y1="43.9688" y2="43.9688"/><text fill="#000000" font-family="Tahoma, sans-serif" font-size="12" font-weight="bold" lengthAdjust="spacingAndGlyphs" textLength="82" x="26" y="37.1387">Controllers</text><!--MD5=[5edfa7121972f9ed9fbf0a4c690ab7d6]
cluster Domain entities--><path d="M233,249 L347,249 A4.5,4.5 0 0 1 350,252 L357,268.9688 L363,268.9688 A3,3 0 0 1 366,271.9688 L366,320 A3,3 0 0 1 363,323 L233,323 A3,3 0 0 1 230,320 L230,252 A3,3 0 0 1 233,249 " fill="#FFFFFF" style="stroke: #000000; stroke-width: 1.5;"/><line style="stroke: #000000; stroke-width: 1.5;" x1="230" x2="357" y1="268.9688" y2="268.9688"/><text fill="#000000" font-family="Tahoma, sans-serif" font-size="12" font-weight="bold" lengthAdjust="spacingAndGlyphs" textLength="114" x="234" y="262.1387">Domain entities</text><!--MD5=[3fe454f5ee662415b72b39d1d24abdcd]
cluster Domain value objects--><path d="M285,347 L439,347 A4.5,4.5 0 0 1 442,350 L449,366.9688 L658,366.9688 A3,3 0 0 1 661,369.9688 L661,418 A3,3 0 0 1 658,421 L285,421 A3,3 0 0 1 282,418 L282,350 A3,3 0 0 1 285,347 " fill="#FFFFFF" style="stroke: #000000; stroke-width: 1.5;"/><line style="stroke: #000000; stroke-width: 1.5;" x1="282" x2="449" y1="366.9688" y2="366.9688"/><text fill="#000000" font-family="Tahoma, sans-serif" font-size="12" font-weight="bold" lengthAdjust="spacingAndGlyphs" textLength="154" x="286" y="360.1387">Domain value objects</text><!--MD5=[600c2d25b6889bd4e9f6b335204b22ae]
cluster Repositories--><path d="M118,145 L210,145 A4.5,4.5 0 0 1 213,148 L220,164.9688 L272,164.9688 A3,3 0 0 1 275,167.9688 L275,220 A3,3 0 0 1 272,223 L118,223 A3,3 0 0 1 115,220 L115,148 A3,3 0 0 1 118,145 " fill="#FFFFFF" style="stroke: #000000; stroke-width: 1.5;"/><line style="stroke: #000000; stroke-width: 1.5;" x1="115" x2="220" y1="164.9688" y2="164.9688"/><text fill="#000000" font-family="Tahoma, sans-serif" font-size="12" font-weight="bold" lengthAdjust="spacingAndGlyphs" textLength="92" x="119" y="158.1387">Repositories</text><!--MD5=[6326b81c113285a9d7424a8f38b27174]
cluster Usecases--><path d="M351,143 L419,143 A4.5,4.5 0 0 1 422,146 L429,162.9688 L757,162.9688 A3,3 0 0 1 760,165.9688 L760,222 A3,3 0 0 1 757,225 L351,225 A3,3 0 0 1 348,222 L348,146 A3,3 0 0 1 351,143 " fill="#FFFFFF" style="stroke: #000000; stroke-width: 1.5;"/><line style="stroke: #000000; stroke-width: 1.5;" x1="348" x2="429" y1="162.9688" y2="162.9688"/><text fill="#000000" font-family="Tahoma, sans-serif" font-size="12" font-weight="bold" lengthAdjust="spacingAndGlyphs" textLength="68" x="352" y="156.1387">Usecases</text><ellipse cx="669.1393" cy="79.7279" fill="#F8F8F8" rx="86.6393" ry="19.7279" style="stroke: #383838; stroke-width: 0.5;"/><text fill="#000000" font-family="Tahoma, sans-serif" font-size="12" font-weight="bold" lengthAdjust="spacingAndGlyphs" textLength="152" x="593.1393" y="83.2122">AuthorizerController</text><ellipse cx="108.774" cy="79.4548" fill="#F8F8F8" rx="70.274" ry="16.4548" style="stroke: #383838; stroke-width: 0.5;"/><text fill="#000000" font-family="Tahoma, sans-serif" font-size="12" font-weight="bold" lengthAdjust="spacingAndGlyphs" textLength="115" x="51.274" y="82.9392">EventController</text><ellipse cx="298.1545" cy="79.4309" fill="#F8F8F8" rx="105.1545" ry="23.4309" style="stroke: #383838; stroke-width: 0.5;"/><text fill="#000000" font-family="Tahoma, sans-serif" font-size="12" font-weight="bold" lengthAdjust="spacingAndGlyphs" textLength="192" x="202.1545" y="82.9153">LastDeploymentController</text><ellipse cx="492.847" cy="79.6694" fill="#F8F8F8" rx="76.347" ry="17.6694" style="stroke: #383838; stroke-width: 0.5;"/><text fill="#000000" font-family="Tahoma, sans-serif" font-size="12" font-weight="bold" lengthAdjust="spacingAndGlyphs" textLength="129" x="428.347" y="83.1538">MetricsController</text><ellipse cx="297.7904" cy="293.8774" fill="#F8F8F8" rx="51.7904" ry="12.8774" style="stroke: #383838; stroke-width: 0.5;"/><text fill="#000000" font-family="Tahoma, sans-serif" font-size="12" lengthAdjust="spacingAndGlyphs" textLength="69" x="263.2904" y="297.3618">Dorametrix</text><ellipse cx="488.234" cy="391.8774" fill="#F8F8F8" rx="36.234" ry="12.8774" style="stroke: #383838; stroke-width: 0.5;"/><text fill="#000000" font-family="Tahoma, sans-serif" font-size="12" lengthAdjust="spacingAndGlyphs" textLength="47" x="464.734" y="395.3618">Change</text><ellipse cx="590.8777" cy="392.1755" fill="#F8F8F8" rx="53.8777" ry="13.1755" style="stroke: #383838; stroke-width: 0.5;"/><text fill="#000000" font-family="Tahoma, sans-serif" font-size="12" lengthAdjust="spacingAndGlyphs" textLength="74" x="553.8777" y="395.6599">Deployment</text><ellipse cx="325.0416" cy="391.8774" fill="#F8F8F8" rx="27.0416" ry="12.8774" style="stroke: #383838; stroke-width: 0.5;"/><text fill="#000000" font-family="Tahoma, sans-serif" font-size="12" lengthAdjust="spacingAndGlyphs" textLength="34" x="308.0416" y="395.3618">Event</text><ellipse cx="401.9411" cy="391.8774" fill="#F8F8F8" rx="36.9411" ry="12.8774" style="stroke: #383838; stroke-width: 0.5;"/><text fill="#000000" font-family="Tahoma, sans-serif" font-size="12" lengthAdjust="spacingAndGlyphs" textLength="48" x="377.9411" y="395.3618">Incident</text><ellipse cx="194.988" cy="192.1976" fill="#F8F8F8" rx="63.988" ry="15.1976" style="stroke: #383838; stroke-width: 0.5;"/><text fill="#000000" font-family="Tahoma, sans-serif" font-size="12" lengthAdjust="spacingAndGlyphs" textLength="100" x="144.988" y="195.682">DynamoDbRepo</text><ellipse cx="418.2424" cy="192.2485" fill="#F8F8F8" rx="54.2424" ry="13.2485" style="stroke: #383838; stroke-width: 0.5;"/><text fill="#000000" font-family="Tahoma, sans-serif" font-size="12" lengthAdjust="spacingAndGlyphs" textLength="75" x="380.7424" y="195.7329">createEvent</text><ellipse cx="557.8555" cy="191.9711" fill="#F8F8F8" rx="72.8555" ry="16.9711" style="stroke: #383838; stroke-width: 0.5;"/><text fill="#000000" font-family="Tahoma, sans-serif" font-size="12" lengthAdjust="spacingAndGlyphs" textLength="121" x="497.3555" y="195.4555">getLastDeployment</text><ellipse cx="694.169" cy="191.8774" fill="#F8F8F8" rx="49.669" ry="12.8774" style="stroke: #383838; stroke-width: 0.5;"/><text fill="#000000" font-family="Tahoma, sans-serif" font-size="12" lengthAdjust="spacingAndGlyphs" textLength="66" x="661.169" y="195.3618">getMetrics</text><!--MD5=[83abceae8bc59e5d450292c421665991]
link createEvent to Change--><path d="M422.273,205.088 C434.262,238.997 468.233,335.087 482.047,374.1628 " fill="none" id="createEvent-&gt;Change" style="stroke: #000000; stroke-width: 0.5;"/><polygon fill="#000000" points="483.782,379.0705,484.5536,369.2519,482.1155,374.3564,477.011,371.9183,483.782,379.0705" style="stroke: #000000; stroke-width: 0.5;"/><!--MD5=[c0921c5de82d20a584715f427310efb7]
link createEvent to Deployment--><path d="M428.954,204.741 C437.921,214.401 450.891,228.489 462,241 C504.821,289.225 554.224,347.4023 577.518,374.9894 " fill="none" id="createEvent-&gt;Deployment" style="stroke: #000000; stroke-width: 0.5;"/><polygon fill="#000000" points="580.761,378.8328,578.0138,369.3749,577.5364,375.0115,571.8997,374.5342,580.761,378.8328" style="stroke: #000000; stroke-width: 0.5;"/><!--MD5=[2a0e25f66cc57a15cab40b469349573a]
link createEvent to Event--><path d="M413.702,205.08 C404.897,229.411 383.714,285.844 361,331 C353.289,346.3287 343.128,363.0082 335.567,374.8812 " fill="none" id="createEvent-&gt;Event" style="stroke: #000000; stroke-width: 0.5;"/><polygon fill="#000000" points="332.706,379.3409,340.9328,373.9261,335.4061,375.1326,334.1995,369.6059,332.706,379.3409" style="stroke: #000000; stroke-width: 0.5;"/><!--MD5=[418dccaf98ccfd49ca6939b263186030]
link createEvent to Incident--><path d="M417.023,205.088 C414.301,238.779 406.618,333.852 403.422,373.4007 " fill="none" id="createEvent-&gt;Incident" style="stroke: #000000; stroke-width: 0.5;"/><polygon fill="#000000" points="402.984,378.8189,407.6963,370.1705,403.3869,373.8352,399.7223,369.5258,402.984,378.8189" style="stroke: #000000; stroke-width: 0.5;"/><!--MD5=[33048631ba65261db8c4cf58d9e1f2d8]
link <b>EventController</b> to createEvent--><path d="M128.369,95.587 C143.255,106.306 164.796,119.994 186,127 C221.609,138.765 233.471,126.511 270,135 C313.256,145.052 360.895,164.738 390.135,177.883 " fill="none" id="&lt;b&gt;EventController&lt;/b&gt;-&gt;createEvent" style="stroke: #000000; stroke-width: 1.0;"/><polygon fill="#000000" points="395.02,180.096,388.4722,172.739,390.4654,178.033,385.1714,180.0263,395.02,180.096" style="stroke: #000000; stroke-width: 1.0;"/><!--MD5=[f26eba65b1b2a1a36932dc406dc8882e]
link <b>EventController</b> to Dorametrix--><path d="M104.9723,96.302 C98.3111,126.385 88.6364,192.492 120,233 C148.756,270.14 201.5,284.481 242.137,289.921 " fill="none" id="&lt;b&gt;EventController&lt;/b&gt;-&gt;Dorametrix" style="stroke: #000000; stroke-width: 1.0;"/><polygon fill="#000000" points="247.534,290.601,239.1054,285.506,242.5733,289.9752,238.1041,293.4431,247.534,290.601" style="stroke: #000000; stroke-width: 1.0;"/><!--MD5=[3c5b3b94e4ec14653cc762e6bc333fbc]
link <b>EventController</b> to DynamoDbRepo--><path d="M120.958,95.865 C136.708,116.101 164.354,151.624 181.043,173.067 " fill="none" id="&lt;b&gt;EventController&lt;/b&gt;-&gt;DynamoDbRepo" style="stroke: #000000; stroke-width: 1.0;"/><polygon fill="#000000" points="184.228,177.159,181.8561,167.6,181.1567,173.2135,175.5433,172.5141,184.228,177.159" style="stroke: #000000; stroke-width: 1.0;"/><!--MD5=[d7d4ba07ce126d6d60148c55adb082f5]
link <b>LastDeploymentController</b> to Dorametrix--><path d="M298,103.241 C298,145.898 298,237.068 298,275.422 " fill="none" id="&lt;b&gt;LastDeploymentController&lt;/b&gt;-&gt;Dorametrix" style="stroke: #000000; stroke-width: 1.0;"/><polygon fill="#000000" points="298,280.686,302,271.686,298,275.686,294,271.686,298,280.686" style="stroke: #000000; stroke-width: 1.0;"/><!--MD5=[0f756cb788b871a87673269b7c51770b]
link <b>LastDeploymentController</b> to DynamoDbRepo--><path d="M277.404,102.596 C258.031,123.38 229.398,154.097 211.491,173.309 " fill="none" id="&lt;b&gt;LastDeploymentController&lt;/b&gt;-&gt;DynamoDbRepo" style="stroke: #000000; stroke-width: 1.0;"/><polygon fill="#000000" points="208.058,176.991,217.1212,173.1364,211.4678,173.3341,211.2701,167.6807,208.058,176.991" style="stroke: #000000; stroke-width: 1.0;"/><!--MD5=[042693883f038f2ab528f24028f7c402]
link <b>LastDeploymentController</b> to getLastDeployment--><path d="M339.857,101.118 C360.506,110.444 386.064,120.752 410,127 C439.444,134.685 449.562,124.169 478,135 C500.012,143.384 521.695,159.162 536.923,171.839 " fill="none" id="&lt;b&gt;LastDeploymentController&lt;/b&gt;-&gt;getLastDeployment" style="stroke: #000000; stroke-width: 1.0;"/><polygon fill="#000000" points="541.041,175.324,536.7544,166.4569,537.2241,172.0942,531.5868,172.5639,541.041,175.324" style="stroke: #000000; stroke-width: 1.0;"/><!--MD5=[0f9a7d1ae750ca5c738b42da0dea494c]
link <b>MetricsController</b> to Dorametrix--><path d="M469.812,96.367 C453.514,106.742 430.808,119.682 409,127 C385.164,134.998 372.409,119.019 353,135 C330.667,153.389 309.788,238.828 301.623,275.835 " fill="none" id="&lt;b&gt;MetricsController&lt;/b&gt;-&gt;Dorametrix" style="stroke: #000000; stroke-width: 1.0;"/><polygon fill="#000000" points="300.512,280.93,306.3382,272.9892,301.5776,276.0449,298.522,271.2843,300.512,280.93" style="stroke: #000000; stroke-width: 1.0;"/><!--MD5=[db9e0eeff1ea737b1d53c7ee0b1f2efa]
link <b>MetricsController</b> to DynamoDbRepo--><path d="M470.641,96.308 C454.355,106.94 431.326,120.21 409,127 C368.885,139.2 355.511,124.19 315,135 C281.264,144.002 245.321,162.033 221.664,175.211 " fill="none" id="&lt;b&gt;MetricsController&lt;/b&gt;-&gt;DynamoDbRepo" style="stroke: #000000; stroke-width: 1.0;"/><polygon fill="#000000" points="217.101,177.778,226.9063,176.8524,221.459,175.3269,222.9845,169.8796,217.101,177.778" style="stroke: #000000; stroke-width: 1.0;"/><!--MD5=[abc0d92def58ff7884aed8372210ebbe]
link <b>MetricsController</b> to getMetrics--><path d="M515.505,96.242 C531.607,106.7 554.203,119.789 576,127 C602.378,135.727 613.065,122.744 638,135 C656.403,144.046 672.37,161.558 682.493,174.602 " fill="none" id="&lt;b&gt;MetricsController&lt;/b&gt;-&gt;getMetrics" style="stroke: #000000; stroke-width: 1.0;"/><polygon fill="#000000" points="685.697,178.836,683.4559,169.2455,682.6799,174.8489,677.0765,174.0729,685.697,178.836" style="stroke: #000000; stroke-width: 1.0;"/><script type="text/plantuml"><![CDATA[MD5=[10539db8610391c41a7c65948586c116]
@startuml

scale max 1920 width
top to bottom direction

skinparam nodesep 13
skinparam ranksep 27
skinparam monochrome true
skinparam shadowing false
skinparam defaultFontName Tahoma
skinparam defaultFontSize 12
skinparam roundCorner 6
skinparam dpi 150
skinparam arrowColor black
skinparam arrowThickness 0.5
skinparam packageTitleAlignment left

skinparam usecase {
  borderThickness 0.5
}

skinparam rectangle {
  borderThickness 0.5
}

skinparam component {
  borderThickness 1
}


package "Controllers" {
  (<b>AuthorizerController</b>)
  (<b>EventController</b>)
  (<b>LastDeploymentController</b>)
  (<b>MetricsController</b>)
}

package "Domain entities" {
  (Dorametrix)
}

package "Domain value objects" {
  (Change)
  (Deployment)
  (Event)
  (Incident)
}

package "Repositories" {
  (DynamoDbRepo)
}

package "Usecases" {
  (createEvent)
  (getLastDeployment)
  (getMetrics)
}

(createEvent) ---> (Change)
(createEvent) ---> (Deployment)
(createEvent) ---> (Event)
(createEvent) ---> (Incident)
(<b>EventController</b>) --[thickness=1]> (createEvent)
(<b>EventController</b>) ---[thickness=1]> (Dorametrix)
(<b>EventController</b>) --[thickness=1]> (DynamoDbRepo)
(<b>LastDeploymentController</b>) ---[thickness=1]> (Dorametrix)
(<b>LastDeploymentController</b>) --[thickness=1]> (DynamoDbRepo)
(<b>LastDeploymentController</b>) --[thickness=1]> (getLastDeployment)
(<b>MetricsController</b>) ---[thickness=1]> (Dorametrix)
(<b>MetricsController</b>) --[thickness=1]> (DynamoDbRepo)
(<b>MetricsController</b>) --[thickness=1]> (getMetrics)

@enduml


' View and edit on https://arkit.pro
]]></script></g></svg>