<?xml version="1.0" encoding="UTF-8" standalone="no"?><svg xmlns="http://www.w3.org/2000/svg" xmlns:xlink="http://www.w3.org/1999/xlink" contentScriptType="application/ecmascript" contentStyleType="text/css" height="461px" preserveAspectRatio="none" style="width:876px;height:461px;" version="1.1" viewBox="0 0 876 461" width="876px" zoomAndPan="magnify"><defs/><g><!--MD5=[8d58eb440f887f21433e844bf2601dc8]
cluster Handlers/adapters--><path d="M117,24 L253,24 A4.5,4.5 0 0 1 256,27 L263,43.9688 L861,43.9688 A3,3 0 0 1 864,46.9688 L864,116 A3,3 0 0 1 861,119 L117,119 A3,3 0 0 1 114,116 L114,27 A3,3 0 0 1 117,24 " fill="#FFFFFF" style="stroke: #000000; stroke-width: 1.5;"/><line style="stroke: #000000; stroke-width: 1.5;" x1="114" x2="263" y1="43.9688" y2="43.9688"/><text fill="#000000" font-family="Tahoma, sans-serif" font-size="12" font-weight="bold" lengthAdjust="spacingAndGlyphs" textLength="136" x="118" y="37.1387">Handlers/adapters</text><!--MD5=[40917519a219363998a5704983d04c91]
cluster Domain services--><path d="M424,375 L542,375 A4.5,4.5 0 0 1 545,378 L552,394.9688 L554,394.9688 A3,3 0 0 1 557,397.9688 L557,446 A3,3 0 0 1 554,449 L424,449 A3,3 0 0 1 421,446 L421,378 A3,3 0 0 1 424,375 " fill="#FFFFFF" style="stroke: #000000; stroke-width: 1.5;"/><line style="stroke: #000000; stroke-width: 1.5;" x1="421" x2="552" y1="394.9688" y2="394.9688"/><text fill="#000000" font-family="Tahoma, sans-serif" font-size="12" font-weight="bold" lengthAdjust="spacingAndGlyphs" textLength="118" x="425" y="388.1387">Domain services</text><!--MD5=[3fe454f5ee662415b72b39d1d24abdcd]
cluster Domain value objects--><path d="M25,264 L179,264 A4.5,4.5 0 0 1 182,267 L189,283.9688 L189,283.9688 A3,3 0 0 1 192,286.9688 L192,335 A3,3 0 0 1 189,338 L25,338 A3,3 0 0 1 22,335 L22,267 A3,3 0 0 1 25,264 " fill="#FFFFFF" style="stroke: #000000; stroke-width: 1.5;"/><line style="stroke: #000000; stroke-width: 1.5;" x1="22" x2="189" y1="283.9688" y2="283.9688"/><text fill="#000000" font-family="Tahoma, sans-serif" font-size="12" font-weight="bold" lengthAdjust="spacingAndGlyphs" textLength="154" x="26" y="277.1387">Domain value objects</text><!--MD5=[600c2d25b6889bd4e9f6b335204b22ae]
cluster Repositories--><path d="M133,152 L225,152 A4.5,4.5 0 0 1 228,155 L235,171.9688 L317,171.9688 A3,3 0 0 1 320,174.9688 L320,233 A3,3 0 0 1 317,236 L133,236 A3,3 0 0 1 130,233 L130,155 A3,3 0 0 1 133,152 " fill="#FFFFFF" style="stroke: #000000; stroke-width: 1.5;"/><line style="stroke: #000000; stroke-width: 1.5;" x1="130" x2="235" y1="171.9688" y2="171.9688"/><text fill="#000000" font-family="Tahoma, sans-serif" font-size="12" font-weight="bold" lengthAdjust="spacingAndGlyphs" textLength="92" x="134" y="165.1387">Repositories</text><!--MD5=[6326b81c113285a9d7424a8f38b27174]
cluster Usecases--><path d="M242,260 L310,260 A4.5,4.5 0 0 1 313,263 L320,279.9688 L648,279.9688 A3,3 0 0 1 651,282.9688 L651,339 A3,3 0 0 1 648,342 L242,342 A3,3 0 0 1 239,339 L239,263 A3,3 0 0 1 242,260 " fill="#FFFFFF" style="stroke: #000000; stroke-width: 1.5;"/><line style="stroke: #000000; stroke-width: 1.5;" x1="239" x2="320" y1="279.9688" y2="279.9688"/><text fill="#000000" font-family="Tahoma, sans-serif" font-size="12" font-weight="bold" lengthAdjust="spacingAndGlyphs" textLength="68" x="243" y="273.1387">Usecases</text><ellipse cx="761.1393" cy="79.7279" fill="#F8F8F8" rx="86.6393" ry="19.7279" style="stroke: #383838; stroke-width: 0.5;"/><text fill="#000000" font-family="Tahoma, sans-serif" font-size="12" font-weight="bold" lengthAdjust="spacingAndGlyphs" textLength="152" x="685.1393" y="83.2122">AuthorizerController</text><ellipse cx="200.774" cy="79.4548" fill="#F8F8F8" rx="70.274" ry="16.4548" style="stroke: #383838; stroke-width: 0.5;"/><text fill="#000000" font-family="Tahoma, sans-serif" font-size="12" font-weight="bold" lengthAdjust="spacingAndGlyphs" textLength="115" x="143.274" y="82.9392">EventController</text><ellipse cx="390.1545" cy="79.4309" fill="#F8F8F8" rx="105.1545" ry="23.4309" style="stroke: #383838; stroke-width: 0.5;"/><text fill="#000000" font-family="Tahoma, sans-serif" font-size="12" font-weight="bold" lengthAdjust="spacingAndGlyphs" textLength="192" x="294.1545" y="82.9153">LastDeploymentController</text><ellipse cx="584.847" cy="79.6694" fill="#F8F8F8" rx="76.347" ry="17.6694" style="stroke: #383838; stroke-width: 0.5;"/><text fill="#000000" font-family="Tahoma, sans-serif" font-size="12" font-weight="bold" lengthAdjust="spacingAndGlyphs" textLength="129" x="520.347" y="83.1538">MetricsController</text><ellipse cx="488.7904" cy="419.8774" fill="#F8F8F8" rx="51.7904" ry="12.8774" style="stroke: #383838; stroke-width: 0.5;"/><text fill="#000000" font-family="Tahoma, sans-serif" font-size="12" lengthAdjust="spacingAndGlyphs" textLength="69" x="454.2904" y="423.3618">Dorametrix</text><ellipse cx="107.0416" cy="308.8774" fill="#F8F8F8" rx="27.0416" ry="12.8774" style="stroke: #383838; stroke-width: 0.5;"/><text fill="#000000" font-family="Tahoma, sans-serif" font-size="12" lengthAdjust="spacingAndGlyphs" textLength="34" x="90.0416" y="312.3618">Event</text><ellipse cx="224.9986" cy="202.1997" fill="#F8F8F8" rx="78.9986" ry="18.1997" style="stroke: #383838; stroke-width: 0.5;"/><text fill="#000000" font-family="Tahoma, sans-serif" font-size="12" lengthAdjust="spacingAndGlyphs" textLength="135" x="157.4986" y="205.6841">DynamoDbRepository</text><ellipse cx="309.2424" cy="309.2485" fill="#F8F8F8" rx="54.2424" ry="13.2485" style="stroke: #383838; stroke-width: 0.5;"/><text fill="#000000" font-family="Tahoma, sans-serif" font-size="12" lengthAdjust="spacingAndGlyphs" textLength="75" x="271.7424" y="312.7329">createEvent</text><ellipse cx="448.8555" cy="308.9711" fill="#F8F8F8" rx="72.8555" ry="16.9711" style="stroke: #383838; stroke-width: 0.5;"/><text fill="#000000" font-family="Tahoma, sans-serif" font-size="12" lengthAdjust="spacingAndGlyphs" textLength="121" x="388.3555" y="312.4555">getLastDeployment</text><ellipse cx="585.169" cy="308.8774" fill="#F8F8F8" rx="49.669" ry="12.8774" style="stroke: #383838; stroke-width: 0.5;"/><text fill="#000000" font-family="Tahoma, sans-serif" font-size="12" lengthAdjust="spacingAndGlyphs" textLength="66" x="552.169" y="312.3618">getMetrics</text><!--MD5=[33048631ba65261db8c4cf58d9e1f2d8]
link <b>EventController</b> to createEvent--><path d="M223.858,95.233 C238.974,104.742 259.369,117.134 278,127 C293.993,135.469 305.233,128.765 315,144 C344.482,189.991 326.435,259.091 315.517,290.882 " fill="none" id="&lt;b&gt;EventController&lt;/b&gt;-&gt;createEvent" style="stroke: #000000; stroke-width: 1.0;"/><polygon fill="#000000" points="313.834,295.655,320.5993,288.4974,315.4968,290.9396,313.0546,285.837,313.834,295.655" style="stroke: #000000; stroke-width: 1.0;"/><!--MD5=[7222f3a86c799d46a14ddb57be99f614]
link <b>EventController</b> to DynamoDbRepository--><path d="M204.138,96.253 C208.319,117.249 215.745,154.532 220.516,178.489 " fill="none" id="&lt;b&gt;EventController&lt;/b&gt;-&gt;DynamoDbRepository" style="stroke: #000000; stroke-width: 1.0;"/><polygon fill="#000000" points="221.551,183.683,223.718,174.0755,220.5754,178.7791,215.8717,175.6365,221.551,183.683" style="stroke: #000000; stroke-width: 1.0;"/><!--MD5=[730c995762882da4d9efc114df105dc3]
link <b>EventController</b> to Event--><path d="M179.361,95.434 C164.446,106.935 145.49,124.186 135,144 C109.321,192.504 106.336,259.353 106.503,290.594 " fill="none" id="&lt;b&gt;EventController&lt;/b&gt;-&gt;Event" style="stroke: #000000; stroke-width: 1.0;"/><polygon fill="#000000" points="106.56,295.648,110.4595,286.604,106.5043,290.6483,102.46,286.6931,106.56,295.648" style="stroke: #000000; stroke-width: 1.0;"/><!--MD5=[3a0c44bfae1ff637d491d275c10eb228]
link getLastDeployment to Dorametrix--><path d="M454.902,326.083 C462.386,346.478 475.23,381.4755 482.836,402.2037 " fill="none" id="getLastDeployment-&gt;Dorametrix" style="stroke: #000000; stroke-width: 0.5;"/><polygon fill="#000000" points="484.559,406.899,485.2138,397.0719,482.8366,402.205,477.7034,399.8278,484.559,406.899" style="stroke: #000000; stroke-width: 0.5;"/><!--MD5=[e30ef3fbb7c04e4137f58dfe26d99929]
link getMetrics to Dorametrix--><path d="M574.36,322.081 C556.896,341.91 522.165,381.3441 502.821,403.3069 " fill="none" id="getMetrics-&gt;Dorametrix" style="stroke: #000000; stroke-width: 0.5;"/><polygon fill="#000000" points="499.396,407.1958,508.3466,403.0865,502.7011,403.4439,502.3437,397.7984,499.396,407.1958" style="stroke: #000000; stroke-width: 0.5;"/><!--MD5=[44f938a9c1da0fde789d05d3a4d2d9a5]
link <b>LastDeploymentController</b> to DynamoDbRepository--><path d="M360.12,102.322 C329.228,124.882 281.443,159.78 251.755,181.461 " fill="none" id="&lt;b&gt;LastDeploymentController&lt;/b&gt;-&gt;DynamoDbRepository" style="stroke: #000000; stroke-width: 1.0;"/><polygon fill="#000000" points="247.51,184.561,257.1367,182.4808,251.5471,181.6111,252.4168,176.0215,247.51,184.561" style="stroke: #000000; stroke-width: 1.0;"/><!--MD5=[042693883f038f2ab528f24028f7c402]
link <b>LastDeploymentController</b> to getLastDeployment--><path d="M395.873,103.145 C407.3,147.209 432.379,243.91 443.501,286.797 " fill="none" id="&lt;b&gt;LastDeploymentController&lt;/b&gt;-&gt;getLastDeployment" style="stroke: #000000; stroke-width: 1.0;"/><polygon fill="#000000" points="444.786,291.753,446.4003,282.0373,443.5317,286.9129,438.6561,284.0442,444.786,291.753" style="stroke: #000000; stroke-width: 1.0;"/><!--MD5=[0de1827c2b1540bc7e2c43612cde184d]
link <b>MetricsController</b> to DynamoDbRepository--><path d="M560.746,96.22 C544.61,106.136 522.659,118.608 502,127 C431.158,155.778 345.596,176.664 288.488,188.767 " fill="none" id="&lt;b&gt;MetricsController&lt;/b&gt;-&gt;DynamoDbRepository" style="stroke: #000000; stroke-width: 1.0;"/><polygon fill="#000000" points="283.396,189.839,293.027,191.8992,288.2888,188.809,291.379,184.0708,283.396,189.839" style="stroke: #000000; stroke-width: 1.0;"/><!--MD5=[abc0d92def58ff7884aed8372210ebbe]
link <b>MetricsController</b> to getMetrics--><path d="M585,97.229 C585,139.149 585,248.361 585,290.791 " fill="none" id="&lt;b&gt;MetricsController&lt;/b&gt;-&gt;getMetrics" style="stroke: #000000; stroke-width: 1.0;"/><polygon fill="#000000" points="585,295.858,589,286.858,585,290.858,581,286.858,585,295.858" style="stroke: #000000; stroke-width: 1.0;"/><script type="text/plantuml"><![CDATA[MD5=[d7d85ace797202e1f5bc36c089682593]
@startuml

scale max 1920 width
top to bottom direction

skinparam nodesep 13
skinparam ranksep 25
skinparam monochrome true
skinparam shadowing false
skinparam defaultFontName Tahoma
skinparam defaultFontSize 12
skinparam roundCorner 6
skinparam dpi 150
skinparam arrowColor black
skinparam arrowThickness 0.5
skinparam packageTitleAlignment left

skinparam usecase {
  borderThickness 0.5
}

skinparam rectangle {
  borderThickness 0.5
}

skinparam component {
  borderThickness 1
}


package "Handlers/adapters" {
  (<b>AuthorizerController</b>)
  (<b>EventController</b>)
  (<b>LastDeploymentController</b>)
  (<b>MetricsController</b>)
}

package "Domain services" {
  (Dorametrix)
}

package "Domain value objects" {
  (Event)
}

package "Repositories" {
  (DynamoDbRepository)
}

package "Usecases" {
  (createEvent)
  (getLastDeployment)
  (getMetrics)
}

(<b>EventController</b>) ----[thickness=1]> (createEvent)
(<b>EventController</b>) ---[thickness=1]> (DynamoDbRepository)
(<b>EventController</b>) ----[thickness=1]> (Event)
(getLastDeployment) ---> (Dorametrix)
(getMetrics) ---> (Dorametrix)
(<b>LastDeploymentController</b>) ---[thickness=1]> (DynamoDbRepository)
(<b>LastDeploymentController</b>) ----[thickness=1]> (getLastDeployment)
(<b>MetricsController</b>) ---[thickness=1]> (DynamoDbRepository)
(<b>MetricsController</b>) ----[thickness=1]> (getMetrics)

@enduml


' View and edit on https://arkit.pro
]]></script></g></svg>