<?xml version="1.0" encoding="UTF-8" standalone="no"?><svg xmlns="http://www.w3.org/2000/svg" xmlns:xlink="http://www.w3.org/1999/xlink" contentScriptType="application/ecmascript" contentStyleType="text/css" height="461px" preserveAspectRatio="none" style="width:792px;height:461px;" version="1.1" viewBox="0 0 792 461" width="792px" zoomAndPan="magnify"><defs/><g><!--MD5=[8d58eb440f887f21433e844bf2601dc8]
cluster Handlers/adapters--><path d="M25,24 L161,24 A4.5,4.5 0 0 1 164,27 L171,43.9688 L768,43.9688 A3,3 0 0 1 771,46.9688 L771,116 A3,3 0 0 1 768,119 L25,119 A3,3 0 0 1 22,116 L22,27 A3,3 0 0 1 25,24 " fill="#FFFFFF" style="stroke: #000000; stroke-width: 1.5;"/><line style="stroke: #000000; stroke-width: 1.5;" x1="22" x2="171" y1="43.9688" y2="43.9688"/><text fill="#000000" font-family="Tahoma, sans-serif" font-size="12" font-weight="bold" lengthAdjust="spacingAndGlyphs" textLength="136" x="26" y="37.1387">Handlers/adapters</text><!--MD5=[40917519a219363998a5704983d04c91]
cluster Domain services--><path d="M96,264 L214,264 A4.5,4.5 0 0 1 217,267 L224,283.9688 L226,283.9688 A3,3 0 0 1 229,286.9688 L229,335 A3,3 0 0 1 226,338 L96,338 A3,3 0 0 1 93,335 L93,267 A3,3 0 0 1 96,264 " fill="#FFFFFF" style="stroke: #000000; stroke-width: 1.5;"/><line style="stroke: #000000; stroke-width: 1.5;" x1="93" x2="224" y1="283.9688" y2="283.9688"/><text fill="#000000" font-family="Tahoma, sans-serif" font-size="12" font-weight="bold" lengthAdjust="spacingAndGlyphs" textLength="118" x="97" y="277.1387">Domain services</text><!--MD5=[3fe454f5ee662415b72b39d1d24abdcd]
cluster Domain value objects--><path d="M404,375 L558,375 A4.5,4.5 0 0 1 561,378 L568,394.9688 L777,394.9688 A3,3 0 0 1 780,397.9688 L780,446 A3,3 0 0 1 777,449 L404,449 A3,3 0 0 1 401,446 L401,378 A3,3 0 0 1 404,375 " fill="#FFFFFF" style="stroke: #000000; stroke-width: 1.5;"/><line style="stroke: #000000; stroke-width: 1.5;" x1="401" x2="568" y1="394.9688" y2="394.9688"/><text fill="#000000" font-family="Tahoma, sans-serif" font-size="12" font-weight="bold" lengthAdjust="spacingAndGlyphs" textLength="154" x="405" y="388.1387">Domain value objects</text><!--MD5=[600c2d25b6889bd4e9f6b335204b22ae]
cluster Repositories--><path d="M196,152 L288,152 A4.5,4.5 0 0 1 291,155 L298,171.9688 L380,171.9688 A3,3 0 0 1 383,174.9688 L383,233 A3,3 0 0 1 380,236 L196,236 A3,3 0 0 1 193,233 L193,155 A3,3 0 0 1 196,152 " fill="#FFFFFF" style="stroke: #000000; stroke-width: 1.5;"/><line style="stroke: #000000; stroke-width: 1.5;" x1="193" x2="298" y1="171.9688" y2="171.9688"/><text fill="#000000" font-family="Tahoma, sans-serif" font-size="12" font-weight="bold" lengthAdjust="spacingAndGlyphs" textLength="92" x="197" y="165.1387">Repositories</text><!--MD5=[6326b81c113285a9d7424a8f38b27174]
cluster Usecases--><path d="M256,260 L324,260 A4.5,4.5 0 0 1 327,263 L334,279.9688 L662,279.9688 A3,3 0 0 1 665,282.9688 L665,339 A3,3 0 0 1 662,342 L256,342 A3,3 0 0 1 253,339 L253,263 A3,3 0 0 1 256,260 " fill="#FFFFFF" style="stroke: #000000; stroke-width: 1.5;"/><line style="stroke: #000000; stroke-width: 1.5;" x1="253" x2="334" y1="279.9688" y2="279.9688"/><text fill="#000000" font-family="Tahoma, sans-serif" font-size="12" font-weight="bold" lengthAdjust="spacingAndGlyphs" textLength="68" x="257" y="273.1387">Usecases</text><ellipse cx="668.1393" cy="79.7279" fill="#F8F8F8" rx="86.6393" ry="19.7279" style="stroke: #383838; stroke-width: 0.5;"/><text fill="#000000" font-family="Tahoma, sans-serif" font-size="12" font-weight="bold" lengthAdjust="spacingAndGlyphs" textLength="152" x="592.1393" y="83.2122">AuthorizerController</text><ellipse cx="497.774" cy="79.4548" fill="#F8F8F8" rx="70.274" ry="16.4548" style="stroke: #383838; stroke-width: 0.5;"/><text fill="#000000" font-family="Tahoma, sans-serif" font-size="12" font-weight="bold" lengthAdjust="spacingAndGlyphs" textLength="115" x="440.274" y="82.9392">EventController</text><ellipse cx="143.1545" cy="79.4309" fill="#F8F8F8" rx="105.1545" ry="23.4309" style="stroke: #383838; stroke-width: 0.5;"/><text fill="#000000" font-family="Tahoma, sans-serif" font-size="12" font-weight="bold" lengthAdjust="spacingAndGlyphs" textLength="192" x="47.1545" y="82.9153">LastDeploymentController</text><ellipse cx="337.847" cy="79.6694" fill="#F8F8F8" rx="76.347" ry="17.6694" style="stroke: #383838; stroke-width: 0.5;"/><text fill="#000000" font-family="Tahoma, sans-serif" font-size="12" font-weight="bold" lengthAdjust="spacingAndGlyphs" textLength="129" x="273.347" y="83.1538">MetricsController</text><ellipse cx="160.7904" cy="308.8774" fill="#F8F8F8" rx="51.7904" ry="12.8774" style="stroke: #383838; stroke-width: 0.5;"/><text fill="#000000" font-family="Tahoma, sans-serif" font-size="12" lengthAdjust="spacingAndGlyphs" textLength="69" x="126.2904" y="312.3618">Dorametrix</text><ellipse cx="453.234" cy="419.8774" fill="#F8F8F8" rx="36.234" ry="12.8774" style="stroke: #383838; stroke-width: 0.5;"/><text fill="#000000" font-family="Tahoma, sans-serif" font-size="12" lengthAdjust="spacingAndGlyphs" textLength="47" x="429.734" y="423.3618">Change</text><ellipse cx="555.8777" cy="420.1755" fill="#F8F8F8" rx="53.8777" ry="13.1755" style="stroke: #383838; stroke-width: 0.5;"/><text fill="#000000" font-family="Tahoma, sans-serif" font-size="12" lengthAdjust="spacingAndGlyphs" textLength="74" x="518.8777" y="423.6599">Deployment</text><ellipse cx="650.0416" cy="419.8774" fill="#F8F8F8" rx="27.0416" ry="12.8774" style="stroke: #383838; stroke-width: 0.5;"/><text fill="#000000" font-family="Tahoma, sans-serif" font-size="12" lengthAdjust="spacingAndGlyphs" textLength="34" x="633.0416" y="423.3618">Event</text><ellipse cx="726.9411" cy="419.8774" fill="#F8F8F8" rx="36.9411" ry="12.8774" style="stroke: #383838; stroke-width: 0.5;"/><text fill="#000000" font-family="Tahoma, sans-serif" font-size="12" lengthAdjust="spacingAndGlyphs" textLength="48" x="702.9411" y="423.3618">Incident</text><ellipse cx="287.9986" cy="202.1997" fill="#F8F8F8" rx="78.9986" ry="18.1997" style="stroke: #383838; stroke-width: 0.5;"/><text fill="#000000" font-family="Tahoma, sans-serif" font-size="12" lengthAdjust="spacingAndGlyphs" textLength="135" x="220.4986" y="205.6841">DynamoDbRepository</text><ellipse cx="595.2424" cy="309.2485" fill="#F8F8F8" rx="54.2424" ry="13.2485" style="stroke: #383838; stroke-width: 0.5;"/><text fill="#000000" font-family="Tahoma, sans-serif" font-size="12" lengthAdjust="spacingAndGlyphs" textLength="75" x="557.7424" y="312.7329">createEvent</text><ellipse cx="341.8555" cy="308.9711" fill="#F8F8F8" rx="72.8555" ry="16.9711" style="stroke: #383838; stroke-width: 0.5;"/><text fill="#000000" font-family="Tahoma, sans-serif" font-size="12" lengthAdjust="spacingAndGlyphs" textLength="121" x="281.3555" y="312.4555">getLastDeployment</text><ellipse cx="478.169" cy="308.8774" fill="#F8F8F8" rx="49.669" ry="12.8774" style="stroke: #383838; stroke-width: 0.5;"/><text fill="#000000" font-family="Tahoma, sans-serif" font-size="12" lengthAdjust="spacingAndGlyphs" textLength="66" x="445.169" y="312.3618">getMetrics</text><!--MD5=[83abceae8bc59e5d450292c421665991]
link createEvent to Change--><path d="M578.87,321.598 C566.82,330.007 549.777,341.37 534,350 C517.768,358.879 510.726,355.799 496,367 C482.995,376.8921 471.396,391.442 463.532,402.6373 " fill="none" id="createEvent-&gt;Change" style="stroke: #000000; stroke-width: 0.5;"/><polygon fill="#000000" points="460.603,406.8995,468.9973,401.7482,463.4351,402.7789,462.4043,397.2168,460.603,406.8995" style="stroke: #000000; stroke-width: 0.5;"/><!--MD5=[c0921c5de82d20a584715f427310efb7]
link createEvent to Deployment--><path d="M590.677,322.081 C583.708,341.56 569.969,379.9585 562.037,402.1281 " fill="none" id="createEvent-&gt;Deployment" style="stroke: #000000; stroke-width: 0.5;"/><polygon fill="#000000" points="560.342,406.8645,567.1404,399.7384,562.0266,402.1568,559.6082,397.043,560.342,406.8645" style="stroke: #000000; stroke-width: 0.5;"/><!--MD5=[2a0e25f66cc57a15cab40b469349573a]
link createEvent to Event--><path d="M601.096,322.081 C610.977,341.663 630.505,380.3654 641.664,402.4786 " fill="none" id="createEvent-&gt;Event" style="stroke: #000000; stroke-width: 0.5;"/><polygon fill="#000000" points="644.044,407.1958,643.5608,397.3588,641.7916,402.7319,636.4185,400.9626,644.044,407.1958" style="stroke: #000000; stroke-width: 0.5;"/><!--MD5=[418dccaf98ccfd49ca6939b263186030]
link createEvent to Incident--><path d="M616.053,321.014 C634.935,331.445 662.845,348.267 684,367 C696.078,377.6954 707.606,391.9324 715.679,402.8051 " fill="none" id="createEvent-&gt;Incident" style="stroke: #000000; stroke-width: 0.5;"/><polygon fill="#000000" points="718.705,406.941,716.6196,397.3155,715.7529,402.9055,710.1628,402.0388,718.705,406.941" style="stroke: #000000; stroke-width: 0.5;"/><!--MD5=[33048631ba65261db8c4cf58d9e1f2d8]
link <b>EventController</b> to createEvent--><path d="M504.667,96.137 C522.23,137.328 569.659,248.567 587.805,291.125 " fill="none" id="&lt;b&gt;EventController&lt;/b&gt;-&gt;createEvent" style="stroke: #000000; stroke-width: 1.0;"/><polygon fill="#000000" points="589.869,295.965,590.0173,286.1173,587.9073,291.3659,582.6587,289.2559,589.869,295.965" style="stroke: #000000; stroke-width: 1.0;"/><!--MD5=[f26eba65b1b2a1a36932dc406dc8882e]
link <b>EventController</b> to Dorametrix--><path d="M491.937,96.192 C477.863,130.186 439.42,210.278 378,244 C354.573,256.862 283.571,244.228 258,252 C228.769,260.885 198.881,279.957 180.153,293.366 " fill="none" id="&lt;b&gt;EventController&lt;/b&gt;-&gt;Dorametrix" style="stroke: #000000; stroke-width: 1.0;"/><polygon fill="#000000" points="176.1,296.304,185.7347,294.2612,180.1485,293.3698,181.0399,287.7836,176.1,296.304" style="stroke: #000000; stroke-width: 1.0;"/><!--MD5=[7222f3a86c799d46a14ddb57be99f614]
link <b>EventController</b> to DynamoDbRepository--><path d="M474.198,95.172 C459.049,104.437 438.968,116.581 421,127 C387.507,146.422 348.784,167.854 321.79,182.631 " fill="none" id="&lt;b&gt;EventController&lt;/b&gt;-&gt;DynamoDbRepository" style="stroke: #000000; stroke-width: 1.0;"/><polygon fill="#000000" points="317.226,185.128,327.0415,184.3178,321.6125,182.7283,323.202,177.2994,317.226,185.128" style="stroke: #000000; stroke-width: 1.0;"/><!--MD5=[d7d4ba07ce126d6d60148c55adb082f5]
link <b>LastDeploymentController</b> to Dorametrix--><path d="M144.792,103.145 C148.392,148.643 156.432,250.261 159.64,290.81 " fill="none" id="&lt;b&gt;LastDeploymentController&lt;/b&gt;-&gt;Dorametrix" style="stroke: #000000; stroke-width: 1.0;"/><polygon fill="#000000" points="160.042,295.892,163.3198,286.6046,159.6477,290.9076,155.3447,287.2355,160.042,295.892" style="stroke: #000000; stroke-width: 1.0;"/><!--MD5=[44f938a9c1da0fde789d05d3a4d2d9a5]
link <b>LastDeploymentController</b> to DynamoDbRepository--><path d="M169.258,102.322 C196.217,124.725 237.816,159.295 263.942,181.007 " fill="none" id="&lt;b&gt;LastDeploymentController&lt;/b&gt;-&gt;DynamoDbRepository" style="stroke: #000000; stroke-width: 1.0;"/><polygon fill="#000000" points="267.998,184.377,263.6325,175.5485,264.1524,181.1814,258.5195,181.7014,267.998,184.377" style="stroke: #000000; stroke-width: 1.0;"/><!--MD5=[042693883f038f2ab528f24028f7c402]
link <b>LastDeploymentController</b> to getLastDeployment--><path d="M185.178,101.025 C205.793,110.27 231.23,120.538 255,127 C281.627,134.238 359.873,123.196 378,144 C413.737,185.016 378.239,253.385 356.373,287.43 " fill="none" id="&lt;b&gt;LastDeploymentController&lt;/b&gt;-&gt;getLastDeployment" style="stroke: #000000; stroke-width: 1.0;"/><polygon fill="#000000" points="353.518,291.803,361.7889,286.4558,356.2525,287.617,355.0913,282.0806,353.518,291.803" style="stroke: #000000; stroke-width: 1.0;"/><!--MD5=[0f9a7d1ae750ca5c738b42da0dea494c]
link <b>MetricsController</b> to Dorametrix--><path d="M312.967,96.188 C296.622,105.966 274.572,118.299 254,127 C230.044,137.133 215.71,124.95 198,144 C159.675,185.224 158.094,257.403 159.647,290.507 " fill="none" id="&lt;b&gt;MetricsController&lt;/b&gt;-&gt;Dorametrix" style="stroke: #000000; stroke-width: 1.0;"/><polygon fill="#000000" points="159.941,295.847,163.4385,286.6401,159.6652,290.8546,155.4507,287.0813,159.941,295.847" style="stroke: #000000; stroke-width: 1.0;"/><!--MD5=[0de1827c2b1540bc7e2c43612cde184d]
link <b>MetricsController</b> to DynamoDbRepository--><path d="M331.048,97.255 C322.18,118.627 306.824,155.635 297.051,179.188 " fill="none" id="&lt;b&gt;MetricsController&lt;/b&gt;-&gt;DynamoDbRepository" style="stroke: #000000; stroke-width: 1.0;"/><polygon fill="#000000" points="295.054,183.999,302.197,177.2183,296.9697,179.3805,294.8074,174.1532,295.054,183.999" style="stroke: #000000; stroke-width: 1.0;"/><!--MD5=[abc0d92def58ff7884aed8372210ebbe]
link <b>MetricsController</b> to getMetrics--><path d="M363.459,96.076 C380.346,107.526 401.911,124.451 416,144 C449.984,191.154 467.765,259.21 474.608,290.749 " fill="none" id="&lt;b&gt;MetricsController&lt;/b&gt;-&gt;getMetrics" style="stroke: #000000; stroke-width: 1.0;"/><polygon fill="#000000" points="475.687,295.846,477.7386,286.2132,474.6526,290.9542,469.9117,287.8682,475.687,295.846" style="stroke: #000000; stroke-width: 1.0;"/><script type="text/plantuml"><![CDATA[MD5=[f47309c85aeb1248c7f336a0e7685267]
@startuml

scale max 1920 width
top to bottom direction

skinparam nodesep 13
skinparam ranksep 27
skinparam monochrome true
skinparam shadowing false
skinparam defaultFontName Tahoma
skinparam defaultFontSize 12
skinparam roundCorner 6
skinparam dpi 150
skinparam arrowColor black
skinparam arrowThickness 0.5
skinparam packageTitleAlignment left

skinparam usecase {
  borderThickness 0.5
}

skinparam rectangle {
  borderThickness 0.5
}

skinparam component {
  borderThickness 1
}


package "Handlers/adapters" {
  (<b>AuthorizerController</b>)
  (<b>EventController</b>)
  (<b>LastDeploymentController</b>)
  (<b>MetricsController</b>)
}

package "Domain services" {
  (Dorametrix)
}

package "Domain value objects" {
  (Change)
  (Deployment)
  (Event)
  (Incident)
}

package "Repositories" {
  (DynamoDbRepository)
}

package "Usecases" {
  (createEvent)
  (getLastDeployment)
  (getMetrics)
}

(createEvent) ---> (Change)
(createEvent) ---> (Deployment)
(createEvent) ---> (Event)
(createEvent) ---> (Incident)
(<b>EventController</b>) ----[thickness=1]> (createEvent)
(<b>EventController</b>) ----[thickness=1]> (Dorametrix)
(<b>EventController</b>) ---[thickness=1]> (DynamoDbRepository)
(<b>LastDeploymentController</b>) ----[thickness=1]> (Dorametrix)
(<b>LastDeploymentController</b>) ---[thickness=1]> (DynamoDbRepository)
(<b>LastDeploymentController</b>) ----[thickness=1]> (getLastDeployment)
(<b>MetricsController</b>) ----[thickness=1]> (Dorametrix)
(<b>MetricsController</b>) ---[thickness=1]> (DynamoDbRepository)
(<b>MetricsController</b>) ----[thickness=1]> (getMetrics)

@enduml


' View and edit on https://arkit.pro
]]></script></g></svg>