<?xml version="1.0" encoding="UTF-8" standalone="no"?><svg xmlns="http://www.w3.org/2000/svg" xmlns:xlink="http://www.w3.org/1999/xlink" contentScriptType="application/ecmascript" contentStyleType="text/css" height="463px" preserveAspectRatio="none" style="width:833px;height:463px;" version="1.1" viewBox="0 0 833 463" width="833px" zoomAndPan="magnify"><defs/><g><!--MD5=[8d58eb440f887f21433e844bf2601dc8]
cluster Handlers/adapters--><path d="M65,24 L201,24 A4.5,4.5 0 0 1 204,27 L211,43.9688 L818,43.9688 A3,3 0 0 1 821,46.9688 L821,118 A3,3 0 0 1 818,121 L65,121 A3,3 0 0 1 62,118 L62,27 A3,3 0 0 1 65,24 " fill="#FFFFFF" style="stroke: #000000; stroke-width: 1.5;"/><line style="stroke: #000000; stroke-width: 1.5;" x1="62" x2="211" y1="43.9688" y2="43.9688"/><text fill="#000000" font-family="Tahoma, sans-serif" font-size="12" font-weight="bold" lengthAdjust="spacingAndGlyphs" textLength="136" x="66" y="37.1387">Handlers/adapters</text><!--MD5=[40917519a219363998a5704983d04c91]
cluster Domain services--><path d="M401,377 L519,377 A4.5,4.5 0 0 1 522,380 L529,396.9688 L531,396.9688 A3,3 0 0 1 534,399.9688 L534,448 A3,3 0 0 1 531,451 L401,451 A3,3 0 0 1 398,448 L398,380 A3,3 0 0 1 401,377 " fill="#FFFFFF" style="stroke: #000000; stroke-width: 1.5;"/><line style="stroke: #000000; stroke-width: 1.5;" x1="398" x2="529" y1="396.9688" y2="396.9688"/><text fill="#000000" font-family="Tahoma, sans-serif" font-size="12" font-weight="bold" lengthAdjust="spacingAndGlyphs" textLength="118" x="402" y="390.1387">Domain services</text><!--MD5=[3fe454f5ee662415b72b39d1d24abdcd]
cluster Domain value objects--><path d="M25,266 L179,266 A4.5,4.5 0 0 1 182,269 L189,285.9688 L189,285.9688 A3,3 0 0 1 192,288.9688 L192,337 A3,3 0 0 1 189,340 L25,340 A3,3 0 0 1 22,337 L22,269 A3,3 0 0 1 25,266 " fill="#FFFFFF" style="stroke: #000000; stroke-width: 1.5;"/><line style="stroke: #000000; stroke-width: 1.5;" x1="22" x2="189" y1="285.9688" y2="285.9688"/><text fill="#000000" font-family="Tahoma, sans-serif" font-size="12" font-weight="bold" lengthAdjust="spacingAndGlyphs" textLength="154" x="26" y="279.1387">Domain value objects</text><!--MD5=[600c2d25b6889bd4e9f6b335204b22ae]
cluster Repositories--><path d="M216,154 L308,154 A4.5,4.5 0 0 1 311,157 L318,173.9688 L400,173.9688 A3,3 0 0 1 403,176.9688 L403,235 A3,3 0 0 1 400,238 L216,238 A3,3 0 0 1 213,235 L213,157 A3,3 0 0 1 216,154 " fill="#FFFFFF" style="stroke: #000000; stroke-width: 1.5;"/><line style="stroke: #000000; stroke-width: 1.5;" x1="213" x2="318" y1="173.9688" y2="173.9688"/><text fill="#000000" font-family="Tahoma, sans-serif" font-size="12" font-weight="bold" lengthAdjust="spacingAndGlyphs" textLength="92" x="217" y="167.1387">Repositories</text><!--MD5=[6326b81c113285a9d7424a8f38b27174]
cluster Usecases--><path d="M219,262 L287,262 A4.5,4.5 0 0 1 290,265 L297,281.9688 L726,281.9688 A3,3 0 0 1 729,284.9688 L729,341 A3,3 0 0 1 726,344 L219,344 A3,3 0 0 1 216,341 L216,265 A3,3 0 0 1 219,262 " fill="#FFFFFF" style="stroke: #000000; stroke-width: 1.5;"/><line style="stroke: #000000; stroke-width: 1.5;" x1="216" x2="297" y1="281.9688" y2="281.9688"/><text fill="#000000" font-family="Tahoma, sans-serif" font-size="12" font-weight="bold" lengthAdjust="spacingAndGlyphs" textLength="68" x="220" y="275.1387">Usecases</text><ellipse cx="153.0946" cy="80.3189" fill="#F8F8F8" rx="74.5946" ry="17.3189" style="stroke: #383838; stroke-width: 0.5;"/><text fill="#000000" font-family="Tahoma, sans-serif" font-size="12" font-weight="bold" lengthAdjust="spacingAndGlyphs" textLength="125" x="90.5946" y="83.8033">AddEventHandler</text><ellipse cx="725.9986" cy="80.6997" fill="#F8F8F8" rx="78.9986" ry="18.1997" style="stroke: #383838; stroke-width: 0.5;"/><text fill="#000000" font-family="Tahoma, sans-serif" font-size="12" font-weight="bold" lengthAdjust="spacingAndGlyphs" textLength="135" x="658.4986" y="84.1841">AuthorizerHandler</text><ellipse cx="349.8945" cy="80.2789" fill="#F8F8F8" rx="109.3945" ry="24.2789" style="stroke: #383838; stroke-width: 0.5;"/><text fill="#000000" font-family="Tahoma, sans-serif" font-size="12" font-weight="bold" lengthAdjust="spacingAndGlyphs" textLength="201" x="249.3945" y="83.7633">GetLastDeploymentHandler</text><ellipse cx="552.8339" cy="80.4668" fill="#F8F8F8" rx="80.3339" ry="18.4668" style="stroke: #383838; stroke-width: 0.5;"/><text fill="#000000" font-family="Tahoma, sans-serif" font-size="12" font-weight="bold" lengthAdjust="spacingAndGlyphs" textLength="138" x="483.8339" y="83.9512">GetMetricsHandler</text><ellipse cx="465.7904" cy="421.8774" fill="#F8F8F8" rx="51.7904" ry="12.8774" style="stroke: #383838; stroke-width: 0.5;"/><text fill="#000000" font-family="Tahoma, sans-serif" font-size="12" lengthAdjust="spacingAndGlyphs" textLength="69" x="431.2904" y="425.3618">Dorametrix</text><ellipse cx="149.0416" cy="310.8774" fill="#F8F8F8" rx="27.0416" ry="12.8774" style="stroke: #383838; stroke-width: 0.5;"/><text fill="#000000" font-family="Tahoma, sans-serif" font-size="12" lengthAdjust="spacingAndGlyphs" textLength="34" x="132.0416" y="314.3618">Event</text><ellipse cx="307.9986" cy="204.1997" fill="#F8F8F8" rx="78.9986" ry="18.1997" style="stroke: #383838; stroke-width: 0.5;"/><text fill="#000000" font-family="Tahoma, sans-serif" font-size="12" lengthAdjust="spacingAndGlyphs" textLength="135" x="240.4986" y="207.6841">DynamoDbRepository</text><ellipse cx="669.0122" cy="310.8774" fill="#F8F8F8" rx="44.0122" ry="12.8774" style="stroke: #383838; stroke-width: 0.5;"/><text fill="#000000" font-family="Tahoma, sans-serif" font-size="12" lengthAdjust="spacingAndGlyphs" textLength="58" x="640.0122" y="314.3618">authorize</text><ellipse cx="286.2424" cy="311.2485" fill="#F8F8F8" rx="54.2424" ry="13.2485" style="stroke: #383838; stroke-width: 0.5;"/><text fill="#000000" font-family="Tahoma, sans-serif" font-size="12" lengthAdjust="spacingAndGlyphs" textLength="75" x="248.7424" y="314.7329">createEvent</text><ellipse cx="425.8555" cy="310.9711" fill="#F8F8F8" rx="72.8555" ry="16.9711" style="stroke: #383838; stroke-width: 0.5;"/><text fill="#000000" font-family="Tahoma, sans-serif" font-size="12" lengthAdjust="spacingAndGlyphs" textLength="121" x="365.3555" y="314.4555">getLastDeployment</text><ellipse cx="562.169" cy="310.8774" fill="#F8F8F8" rx="49.669" ry="12.8774" style="stroke: #383838; stroke-width: 0.5;"/><text fill="#000000" font-family="Tahoma, sans-serif" font-size="12" lengthAdjust="spacingAndGlyphs" textLength="66" x="529.169" y="314.3618">getMetrics</text><!--MD5=[fff749b9c89b10f370d6b1d045c8b613]
link <b>AddEventHandler</b> to createEvent--><path d="M156.951,98.054 C164.89,129.072 184.904,197.206 218,246 C231.143,265.377 251.099,283.26 265.997,295.167 " fill="none" id="&lt;b&gt;AddEventHandler&lt;/b&gt;-&gt;createEvent" style="stroke: #000000; stroke-width: 1.0;"/><polygon fill="#000000" points="270.056,298.364,265.4588,289.6539,266.1274,295.2711,260.5102,295.9397,270.056,298.364" style="stroke: #000000; stroke-width: 1.0;"/><!--MD5=[e2bb59898ffc704e015d69eba3bd9b4a]
link <b>AddEventHandler</b> to DynamoDbRepository--><path d="M173.264,97.384 C201.457,119.484 252.484,159.483 283.005,183.407 " fill="none" id="&lt;b&gt;AddEventHandler&lt;/b&gt;-&gt;DynamoDbRepository" style="stroke: #000000; stroke-width: 1.0;"/><polygon fill="#000000" points="286.988,186.529,282.3714,177.8292,283.0525,183.4449,277.4368,184.126,286.988,186.529" style="stroke: #000000; stroke-width: 1.0;"/><!--MD5=[49a1d289be9e429e21866f2a99f1ae5d]
link <b>AddEventHandler</b> to Event--><path d="M152.706,98.302 C151.969,140.407 150.049,250.098 149.303,292.715 " fill="none" id="&lt;b&gt;AddEventHandler&lt;/b&gt;-&gt;Event" style="stroke: #000000; stroke-width: 1.0;"/><polygon fill="#000000" points="149.213,297.804,153.3692,288.8751,149.3001,292.8048,145.3704,288.7357,149.213,297.804" style="stroke: #000000; stroke-width: 1.0;"/><!--MD5=[13fbac97c84e535d0f165cfd3d229e5d]
link <b>AuthorizerHandler</b> to authorize--><path d="M721.716,98.675 C711.139,141.076 683.879,250.353 673.293,292.791 " fill="none" id="&lt;b&gt;AuthorizerHandler&lt;/b&gt;-&gt;authorize" style="stroke: #000000; stroke-width: 1.0;"/><polygon fill="#000000" points="672.029,297.859,678.0881,290.0945,673.239,293.0076,670.3259,288.1585,672.029,297.859" style="stroke: #000000; stroke-width: 1.0;"/><!--MD5=[3a0c44bfae1ff637d491d275c10eb228]
link getLastDeployment to Dorametrix--><path d="M431.902,328.083 C439.386,348.478 452.23,383.4755 459.836,404.2037 " fill="none" id="getLastDeployment-&gt;Dorametrix" style="stroke: #000000; stroke-width: 0.5;"/><polygon fill="#000000" points="461.559,408.899,462.2138,399.0719,459.8366,404.205,454.7034,401.8278,461.559,408.899" style="stroke: #000000; stroke-width: 0.5;"/><!--MD5=[ebce8d582b8d9afc621e42e14165d703]
link <b>GetLastDeploymentHandler</b> to DynamoDbRepository--><path d="M341.802,105.215 C334.2,127.208 322.977,159.674 315.579,181.075 " fill="none" id="&lt;b&gt;GetLastDeploymentHandler&lt;/b&gt;-&gt;DynamoDbRepository" style="stroke: #000000; stroke-width: 1.0;"/><polygon fill="#000000" points="313.877,185.998,320.5969,178.7978,315.5099,181.2722,313.0355,176.1852,313.877,185.998" style="stroke: #000000; stroke-width: 1.0;"/><!--MD5=[6331cc65f6200718e97590f3406fba33]
link <b>GetLastDeploymentHandler</b> to getLastDeployment--><path d="M371.402,104.618 C380.995,116.223 391.574,130.986 398,146 C418.629,194.195 424.081,256.487 425.507,288.661 " fill="none" id="&lt;b&gt;GetLastDeploymentHandler&lt;/b&gt;-&gt;getLastDeployment" style="stroke: #000000; stroke-width: 1.0;"/><polygon fill="#000000" points="425.717,293.934,429.3564,284.7822,425.5184,288.9379,421.3627,285.1,425.717,293.934" style="stroke: #000000; stroke-width: 1.0;"/><!--MD5=[e30ef3fbb7c04e4137f58dfe26d99929]
link getMetrics to Dorametrix--><path d="M551.36,324.081 C533.896,343.91 499.165,383.3441 479.821,405.3069 " fill="none" id="getMetrics-&gt;Dorametrix" style="stroke: #000000; stroke-width: 0.5;"/><polygon fill="#000000" points="476.396,409.1958,485.3466,405.0865,479.7011,405.4439,479.3437,399.7984,476.396,409.1958" style="stroke: #000000; stroke-width: 0.5;"/><!--MD5=[9388eb34ee10cac39fd4236a2f9f92b5]
link <b>GetMetricsHandler</b> to DynamoDbRepository--><path d="M524.237,97.785 C507.4,107.171 485.65,119.046 466,129 C425.823,149.352 379.017,171.026 346.835,185.621 " fill="none" id="&lt;b&gt;GetMetricsHandler&lt;/b&gt;-&gt;DynamoDbRepository" style="stroke: #000000; stroke-width: 1.0;"/><polygon fill="#000000" points="342.196,187.722,352.0446,187.6523,346.7506,185.659,348.7438,180.365,342.196,187.722" style="stroke: #000000; stroke-width: 1.0;"/><!--MD5=[1c6ac967fdb6f524dcd97d6dfadbd943]
link <b>GetMetricsHandler</b> to getMetrics--><path d="M553.691,99.051 C555.373,141.743 559.661,250.608 561.325,292.866 " fill="none" id="&lt;b&gt;GetMetricsHandler&lt;/b&gt;-&gt;getMetrics" style="stroke: #000000; stroke-width: 1.0;"/><polygon fill="#000000" points="561.524,297.913,565.1687,288.7634,561.3283,292.9168,557.1748,289.0764,561.524,297.913" style="stroke: #000000; stroke-width: 1.0;"/><script type="text/plantuml"><![CDATA[MD5=[aa2dcc0cfc829c7e0b1ccfb20ace9ebb]
@startuml

scale max 1920 width
top to bottom direction

skinparam nodesep 13
skinparam ranksep 26
skinparam monochrome true
skinparam shadowing false
skinparam defaultFontName Tahoma
skinparam defaultFontSize 12
skinparam roundCorner 6
skinparam dpi 150
skinparam arrowColor black
skinparam arrowThickness 0.5
skinparam packageTitleAlignment left

skinparam usecase {
  borderThickness 0.5
}

skinparam rectangle {
  borderThickness 0.5
}

skinparam component {
  borderThickness 1
}


package "Handlers/adapters" {
  (<b>AddEventHandler</b>)
  (<b>AuthorizerHandler</b>)
  (<b>GetLastDeploymentHandler</b>)
  (<b>GetMetricsHandler</b>)
}

package "Domain services" {
  (Dorametrix)
}

package "Domain value objects" {
  (Event)
}

package "Repositories" {
  (DynamoDbRepository)
}

package "Usecases" {
  (authorize)
  (createEvent)
  (getLastDeployment)
  (getMetrics)
}

(<b>AddEventHandler</b>) ----[thickness=1]> (createEvent)
(<b>AddEventHandler</b>) ---[thickness=1]> (DynamoDbRepository)
(<b>AddEventHandler</b>) ----[thickness=1]> (Event)
(<b>AuthorizerHandler</b>) ----[thickness=1]> (authorize)
(getLastDeployment) ---> (Dorametrix)
(<b>GetLastDeploymentHandler</b>) ---[thickness=1]> (DynamoDbRepository)
(<b>GetLastDeploymentHandler</b>) ----[thickness=1]> (getLastDeployment)
(getMetrics) ---> (Dorametrix)
(<b>GetMetricsHandler</b>) ---[thickness=1]> (DynamoDbRepository)
(<b>GetMetricsHandler</b>) ----[thickness=1]> (getMetrics)

@enduml


' View and edit on https://arkit.pro
]]></script></g></svg>