<?xml version="1.0" encoding="UTF-8" standalone="no"?><svg xmlns="http://www.w3.org/2000/svg" xmlns:xlink="http://www.w3.org/1999/xlink" contentScriptType="application/ecmascript" contentStyleType="text/css" height="435px" preserveAspectRatio="none" style="width:784px;height:435px;" version="1.1" viewBox="0 0 784 435" width="784px" zoomAndPan="magnify"><defs/><g><!--MD5=[ed1d20ea533a2a0e7df5ba3c35e56ced]
cluster Controllers--><path d="M25,24 L107,24 A4.5,4.5 0 0 1 110,27 L117,43.9688 L769,43.9688 A3,3 0 0 1 772,46.9688 L772,116 A3,3 0 0 1 769,119 L25,119 A3,3 0 0 1 22,116 L22,27 A3,3 0 0 1 25,24 " fill="#FFFFFF" style="stroke: #000000; stroke-width: 1.5;"/><line style="stroke: #000000; stroke-width: 1.5;" x1="22" x2="117" y1="43.9688" y2="43.9688"/><text fill="#000000" font-family="Tahoma, sans-serif" font-size="12" font-weight="bold" lengthAdjust="spacingAndGlyphs" textLength="82" x="26" y="37.1387">Controllers</text><!--MD5=[5edfa7121972f9ed9fbf0a4c690ab7d6]
cluster Domain entities--><path d="M233,251 L347,251 A4.5,4.5 0 0 1 350,254 L357,270.9688 L363,270.9688 A3,3 0 0 1 366,273.9688 L366,322 A3,3 0 0 1 363,325 L233,325 A3,3 0 0 1 230,322 L230,254 A3,3 0 0 1 233,251 " fill="#FFFFFF" style="stroke: #000000; stroke-width: 1.5;"/><line style="stroke: #000000; stroke-width: 1.5;" x1="230" x2="357" y1="270.9688" y2="270.9688"/><text fill="#000000" font-family="Tahoma, sans-serif" font-size="12" font-weight="bold" lengthAdjust="spacingAndGlyphs" textLength="114" x="234" y="264.1387">Domain entities</text><!--MD5=[3fe454f5ee662415b72b39d1d24abdcd]
cluster Domain value objects--><path d="M285,349 L439,349 A4.5,4.5 0 0 1 442,352 L449,368.9688 L658,368.9688 A3,3 0 0 1 661,371.9688 L661,420 A3,3 0 0 1 658,423 L285,423 A3,3 0 0 1 282,420 L282,352 A3,3 0 0 1 285,349 " fill="#FFFFFF" style="stroke: #000000; stroke-width: 1.5;"/><line style="stroke: #000000; stroke-width: 1.5;" x1="282" x2="449" y1="368.9688" y2="368.9688"/><text fill="#000000" font-family="Tahoma, sans-serif" font-size="12" font-weight="bold" lengthAdjust="spacingAndGlyphs" textLength="154" x="286" y="362.1387">Domain value objects</text><!--MD5=[600c2d25b6889bd4e9f6b335204b22ae]
cluster Repositories--><path d="M88,143 L180,143 A4.5,4.5 0 0 1 183,146 L190,162.9688 L272,162.9688 A3,3 0 0 1 275,165.9688 L275,224 A3,3 0 0 1 272,227 L88,227 A3,3 0 0 1 85,224 L85,146 A3,3 0 0 1 88,143 " fill="#FFFFFF" style="stroke: #000000; stroke-width: 1.5;"/><line style="stroke: #000000; stroke-width: 1.5;" x1="85" x2="190" y1="162.9688" y2="162.9688"/><text fill="#000000" font-family="Tahoma, sans-serif" font-size="12" font-weight="bold" lengthAdjust="spacingAndGlyphs" textLength="92" x="89" y="156.1387">Repositories</text><!--MD5=[6326b81c113285a9d7424a8f38b27174]
cluster Usecases--><path d="M351,144 L419,144 A4.5,4.5 0 0 1 422,147 L429,163.9688 L757,163.9688 A3,3 0 0 1 760,166.9688 L760,223 A3,3 0 0 1 757,226 L351,226 A3,3 0 0 1 348,223 L348,147 A3,3 0 0 1 351,144 " fill="#FFFFFF" style="stroke: #000000; stroke-width: 1.5;"/><line style="stroke: #000000; stroke-width: 1.5;" x1="348" x2="429" y1="163.9688" y2="163.9688"/><text fill="#000000" font-family="Tahoma, sans-serif" font-size="12" font-weight="bold" lengthAdjust="spacingAndGlyphs" textLength="68" x="352" y="157.1387">Usecases</text><ellipse cx="669.1393" cy="79.7279" fill="#F8F8F8" rx="86.6393" ry="19.7279" style="stroke: #383838; stroke-width: 0.5;"/><text fill="#000000" font-family="Tahoma, sans-serif" font-size="12" font-weight="bold" lengthAdjust="spacingAndGlyphs" textLength="152" x="593.1393" y="83.2122">AuthorizerController</text><ellipse cx="108.774" cy="79.4548" fill="#F8F8F8" rx="70.274" ry="16.4548" style="stroke: #383838; stroke-width: 0.5;"/><text fill="#000000" font-family="Tahoma, sans-serif" font-size="12" font-weight="bold" lengthAdjust="spacingAndGlyphs" textLength="115" x="51.274" y="82.9392">EventController</text><ellipse cx="298.1545" cy="79.4309" fill="#F8F8F8" rx="105.1545" ry="23.4309" style="stroke: #383838; stroke-width: 0.5;"/><text fill="#000000" font-family="Tahoma, sans-serif" font-size="12" font-weight="bold" lengthAdjust="spacingAndGlyphs" textLength="192" x="202.1545" y="82.9153">LastDeploymentController</text><ellipse cx="492.847" cy="79.6694" fill="#F8F8F8" rx="76.347" ry="17.6694" style="stroke: #383838; stroke-width: 0.5;"/><text fill="#000000" font-family="Tahoma, sans-serif" font-size="12" font-weight="bold" lengthAdjust="spacingAndGlyphs" textLength="129" x="428.347" y="83.1538">MetricsController</text><ellipse cx="297.7904" cy="295.8774" fill="#F8F8F8" rx="51.7904" ry="12.8774" style="stroke: #383838; stroke-width: 0.5;"/><text fill="#000000" font-family="Tahoma, sans-serif" font-size="12" lengthAdjust="spacingAndGlyphs" textLength="69" x="263.2904" y="299.3618">Dorametrix</text><ellipse cx="488.234" cy="393.8774" fill="#F8F8F8" rx="36.234" ry="12.8774" style="stroke: #383838; stroke-width: 0.5;"/><text fill="#000000" font-family="Tahoma, sans-serif" font-size="12" lengthAdjust="spacingAndGlyphs" textLength="47" x="464.734" y="397.3618">Change</text><ellipse cx="590.8777" cy="394.1755" fill="#F8F8F8" rx="53.8777" ry="13.1755" style="stroke: #383838; stroke-width: 0.5;"/><text fill="#000000" font-family="Tahoma, sans-serif" font-size="12" lengthAdjust="spacingAndGlyphs" textLength="74" x="553.8777" y="397.6599">Deployment</text><ellipse cx="325.0416" cy="393.8774" fill="#F8F8F8" rx="27.0416" ry="12.8774" style="stroke: #383838; stroke-width: 0.5;"/><text fill="#000000" font-family="Tahoma, sans-serif" font-size="12" lengthAdjust="spacingAndGlyphs" textLength="34" x="308.0416" y="397.3618">Event</text><ellipse cx="401.9411" cy="393.8774" fill="#F8F8F8" rx="36.9411" ry="12.8774" style="stroke: #383838; stroke-width: 0.5;"/><text fill="#000000" font-family="Tahoma, sans-serif" font-size="12" lengthAdjust="spacingAndGlyphs" textLength="48" x="377.9411" y="397.3618">Incident</text><ellipse cx="179.9986" cy="193.1997" fill="#F8F8F8" rx="78.9986" ry="18.1997" style="stroke: #383838; stroke-width: 0.5;"/><text fill="#000000" font-family="Tahoma, sans-serif" font-size="12" lengthAdjust="spacingAndGlyphs" textLength="135" x="112.4986" y="196.6841">DynamoDbRepository</text><ellipse cx="418.2424" cy="193.2485" fill="#F8F8F8" rx="54.2424" ry="13.2485" style="stroke: #383838; stroke-width: 0.5;"/><text fill="#000000" font-family="Tahoma, sans-serif" font-size="12" lengthAdjust="spacingAndGlyphs" textLength="75" x="380.7424" y="196.7329">createEvent</text><ellipse cx="557.8555" cy="192.9711" fill="#F8F8F8" rx="72.8555" ry="16.9711" style="stroke: #383838; stroke-width: 0.5;"/><text fill="#000000" font-family="Tahoma, sans-serif" font-size="12" lengthAdjust="spacingAndGlyphs" textLength="121" x="497.3555" y="196.4555">getLastDeployment</text><ellipse cx="694.169" cy="192.8774" fill="#F8F8F8" rx="49.669" ry="12.8774" style="stroke: #383838; stroke-width: 0.5;"/><text fill="#000000" font-family="Tahoma, sans-serif" font-size="12" lengthAdjust="spacingAndGlyphs" textLength="66" x="661.169" y="196.3618">getMetrics</text><!--MD5=[83abceae8bc59e5d450292c421665991]
link createEvent to Change--><path d="M422.273,206.149 C434.262,240.23 468.233,336.805 482.047,376.0778 " fill="none" id="createEvent-&gt;Change" style="stroke: #000000; stroke-width: 0.5;"/><polygon fill="#000000" points="483.782,381.0102,484.5692,371.1929,482.123,376.2935,477.0224,373.8473,483.782,381.0102" style="stroke: #000000; stroke-width: 0.5;"/><!--MD5=[c0921c5de82d20a584715f427310efb7]
link createEvent to Deployment--><path d="M428.922,206.018 C437.869,215.898 450.83,230.289 462,243 C504.573,291.444 554.092,349.5191 577.465,377.0361 " fill="none" id="createEvent-&gt;Deployment" style="stroke: #000000; stroke-width: 0.5;"/><polygon fill="#000000" points="580.72,380.8694,577.9439,371.4199,577.4837,377.058,571.8456,376.5979,580.72,380.8694" style="stroke: #000000; stroke-width: 0.5;"/><!--MD5=[2a0e25f66cc57a15cab40b469349573a]
link createEvent to Event--><path d="M413.716,206.171 C404.937,230.683 383.797,287.535 361,333 C353.309,348.3385 343.145,365.0169 335.579,376.8871 " fill="none" id="createEvent-&gt;Event" style="stroke: #000000; stroke-width: 0.5;"/><polygon fill="#000000" points="332.715,381.3455,340.9446,375.9349,335.4173,377.1386,334.2136,371.6113,332.715,381.3455" style="stroke: #000000; stroke-width: 0.5;"/><!--MD5=[418dccaf98ccfd49ca6939b263186030]
link createEvent to Incident--><path d="M417.023,206.149 C414.301,240.01 406.618,335.563 403.422,375.3118 " fill="none" id="createEvent-&gt;Incident" style="stroke: #000000; stroke-width: 0.5;"/><polygon fill="#000000" points="402.984,380.7574,407.6924,372.1069,403.3847,375.7735,399.7181,371.4658,402.984,380.7574" style="stroke: #000000; stroke-width: 0.5;"/><!--MD5=[33048631ba65261db8c4cf58d9e1f2d8]
link <b>EventController</b> to createEvent--><path d="M128.369,95.587 C143.255,106.306 164.796,119.994 186,127 C221.609,138.765 233.496,126.403 270,135 C313.577,145.262 361.502,165.482 390.673,178.871 " fill="none" id="&lt;b&gt;EventController&lt;/b&gt;-&gt;createEvent" style="stroke: #000000; stroke-width: 1.0;"/><polygon fill="#000000" points="395.543,181.123,389.0528,173.7151,391.0047,179.0245,385.6952,180.9764,395.543,181.123" style="stroke: #000000; stroke-width: 1.0;"/><!--MD5=[f26eba65b1b2a1a36932dc406dc8882e]
link <b>EventController</b> to Dorametrix--><path d="M100.6503,95.925 C85.6443,125.98 58.481,193.104 90,235 C109.152,260.458 194.157,278.511 249.395,287.802 " fill="none" id="&lt;b&gt;EventController&lt;/b&gt;-&gt;Dorametrix" style="stroke: #000000; stroke-width: 1.0;"/><polygon fill="#000000" points="254.645,288.674,246.4212,283.2546,249.7125,287.8555,245.1116,291.1467,254.645,288.674" style="stroke: #000000; stroke-width: 1.0;"/><!--MD5=[7222f3a86c799d46a14ddb57be99f614]
link <b>EventController</b> to DynamoDbRepository--><path d="M118.872,96.004 C131.18,115.333 152.289,148.483 166.195,170.32 " fill="none" id="&lt;b&gt;EventController&lt;/b&gt;-&gt;DynamoDbRepository" style="stroke: #000000; stroke-width: 1.0;"/><polygon fill="#000000" points="169.047,174.8,167.5864,165.0601,166.3611,170.5826,160.8386,169.3574,169.047,174.8" style="stroke: #000000; stroke-width: 1.0;"/><!--MD5=[d7d4ba07ce126d6d60148c55adb082f5]
link <b>LastDeploymentController</b> to Dorametrix--><path d="M298,103.05 C298,145.903 298,238.29 298,277.176 " fill="none" id="&lt;b&gt;LastDeploymentController&lt;/b&gt;-&gt;Dorametrix" style="stroke: #000000; stroke-width: 1.0;"/><polygon fill="#000000" points="298,282.512,302,273.512,298,277.512,294,273.512,298,282.512" style="stroke: #000000; stroke-width: 1.0;"/><!--MD5=[44f938a9c1da0fde789d05d3a4d2d9a5]
link <b>LastDeploymentController</b> to DynamoDbRepository--><path d="M274.687,102.529 C253.442,122.604 222.307,152.023 201.612,171.579 " fill="none" id="&lt;b&gt;LastDeploymentController&lt;/b&gt;-&gt;DynamoDbRepository" style="stroke: #000000; stroke-width: 1.0;"/><polygon fill="#000000" points="197.874,175.111,207.1627,171.8369,201.5081,171.6769,201.6681,166.0223,197.874,175.111" style="stroke: #000000; stroke-width: 1.0;"/><!--MD5=[042693883f038f2ab528f24028f7c402]
link <b>LastDeploymentController</b> to getLastDeployment--><path d="M339.857,101.118 C360.506,110.444 386.064,120.752 410,127 C439.444,134.685 449.608,124.05 478,135 C500.252,143.582 522.067,159.798 537.281,172.747 " fill="none" id="&lt;b&gt;LastDeploymentController&lt;/b&gt;-&gt;getLastDeployment" style="stroke: #000000; stroke-width: 1.0;"/><polygon fill="#000000" points="541.392,176.303,537.2027,167.3895,537.6107,173.0317,531.9686,173.4397,541.392,176.303" style="stroke: #000000; stroke-width: 1.0;"/><!--MD5=[0f9a7d1ae750ca5c738b42da0dea494c]
link <b>MetricsController</b> to Dorametrix--><path d="M469.812,96.367 C453.514,106.742 430.808,119.682 409,127 C385.164,134.998 372.378,118.981 353,135 C330.451,153.641 309.692,240.151 301.591,277.62 " fill="none" id="&lt;b&gt;MetricsController&lt;/b&gt;-&gt;Dorametrix" style="stroke: #000000; stroke-width: 1.0;"/><polygon fill="#000000" points="300.489,282.779,306.2826,274.8145,301.5346,277.8895,298.4595,273.1415,300.489,282.779" style="stroke: #000000; stroke-width: 1.0;"/><!--MD5=[0de1827c2b1540bc7e2c43612cde184d]
link <b>MetricsController</b> to DynamoDbRepository--><path d="M470.641,96.308 C454.355,106.94 431.326,120.21 409,127 C368.885,139.2 355.705,124.943 315,135 C279.278,143.825 240.829,160.873 214.136,174.034 " fill="none" id="&lt;b&gt;MetricsController&lt;/b&gt;-&gt;DynamoDbRepository" style="stroke: #000000; stroke-width: 1.0;"/><polygon fill="#000000" points="209.624,176.277,219.4637,175.8524,214.1013,174.0512,215.9025,168.6888,209.624,176.277" style="stroke: #000000; stroke-width: 1.0;"/><!--MD5=[abc0d92def58ff7884aed8372210ebbe]
link <b>MetricsController</b> to getMetrics--><path d="M515.505,96.242 C531.607,106.7 554.203,119.789 576,127 C602.378,135.727 613.12,122.633 638,135 C656.75,144.32 672.858,162.465 682.92,175.788 " fill="none" id="&lt;b&gt;MetricsController&lt;/b&gt;-&gt;getMetrics" style="stroke: #000000; stroke-width: 1.0;"/><polygon fill="#000000" points="686.096,180.102,683.9822,170.4827,683.132,176.0752,677.5394,175.225,686.096,180.102" style="stroke: #000000; stroke-width: 1.0;"/><script type="text/plantuml"><![CDATA[MD5=[375fc12e037f1260b62aec4063032a2e]
@startuml

scale max 1920 width
top to bottom direction

skinparam nodesep 13
skinparam ranksep 27
skinparam monochrome true
skinparam shadowing false
skinparam defaultFontName Tahoma
skinparam defaultFontSize 12
skinparam roundCorner 6
skinparam dpi 150
skinparam arrowColor black
skinparam arrowThickness 0.5
skinparam packageTitleAlignment left

skinparam usecase {
  borderThickness 0.5
}

skinparam rectangle {
  borderThickness 0.5
}

skinparam component {
  borderThickness 1
}


package "Controllers" {
  (<b>AuthorizerController</b>)
  (<b>EventController</b>)
  (<b>LastDeploymentController</b>)
  (<b>MetricsController</b>)
}

package "Domain entities" {
  (Dorametrix)
}

package "Domain value objects" {
  (Change)
  (Deployment)
  (Event)
  (Incident)
}

package "Repositories" {
  (DynamoDbRepository)
}

package "Usecases" {
  (createEvent)
  (getLastDeployment)
  (getMetrics)
}

(createEvent) ---> (Change)
(createEvent) ---> (Deployment)
(createEvent) ---> (Event)
(createEvent) ---> (Incident)
(<b>EventController</b>) --[thickness=1]> (createEvent)
(<b>EventController</b>) ---[thickness=1]> (Dorametrix)
(<b>EventController</b>) --[thickness=1]> (DynamoDbRepository)
(<b>LastDeploymentController</b>) ---[thickness=1]> (Dorametrix)
(<b>LastDeploymentController</b>) --[thickness=1]> (DynamoDbRepository)
(<b>LastDeploymentController</b>) --[thickness=1]> (getLastDeployment)
(<b>MetricsController</b>) ---[thickness=1]> (Dorametrix)
(<b>MetricsController</b>) --[thickness=1]> (DynamoDbRepository)
(<b>MetricsController</b>) --[thickness=1]> (getMetrics)

@enduml


' View and edit on https://arkit.pro
]]></script></g></svg>