<?xml version="1.0" encoding="UTF-8" standalone="no"?><svg xmlns="http://www.w3.org/2000/svg" xmlns:xlink="http://www.w3.org/1999/xlink" contentScriptType="application/ecmascript" contentStyleType="text/css" height="452px" preserveAspectRatio="none" style="width:647px;height:452px;" version="1.1" viewBox="0 0 647 452" width="647px" zoomAndPan="magnify"><defs/><g><!--MD5=[8d58eb440f887f21433e844bf2601dc8]
cluster Handlers/adapters--><path d="M200,24 L336,24 A4.5,4.5 0 0 1 339,27 L346,43.9688 L632,43.9688 A3,3 0 0 1 635,46.9688 L635,107 A3,3 0 0 1 632,110 L200,110 A3,3 0 0 1 197,107 L197,27 A3,3 0 0 1 200,24 " fill="#FFFFFF" style="stroke: #000000; stroke-width: 1.5;"/><line style="stroke: #000000; stroke-width: 1.5;" x1="197" x2="346" y1="43.9688" y2="43.9688"/><text fill="#000000" font-family="Tahoma, sans-serif" font-size="12" font-weight="bold" lengthAdjust="spacingAndGlyphs" textLength="136" x="201" y="37.1387">Handlers/adapters</text><!--MD5=[40917519a219363998a5704983d04c91]
cluster Domain services--><path d="M402,366 L520,366 A4.5,4.5 0 0 1 523,369 L530,385.9688 L532,385.9688 A3,3 0 0 1 535,388.9688 L535,437 A3,3 0 0 1 532,440 L402,440 A3,3 0 0 1 399,437 L399,369 A3,3 0 0 1 402,366 " fill="#FFFFFF" style="stroke: #000000; stroke-width: 1.5;"/><line style="stroke: #000000; stroke-width: 1.5;" x1="399" x2="530" y1="385.9688" y2="385.9688"/><text fill="#000000" font-family="Tahoma, sans-serif" font-size="12" font-weight="bold" lengthAdjust="spacingAndGlyphs" textLength="118" x="403" y="379.1387">Domain services</text><!--MD5=[3fe454f5ee662415b72b39d1d24abdcd]
cluster Domain value objects--><path d="M25,255 L179,255 A4.5,4.5 0 0 1 182,258 L189,274.9688 L189,274.9688 A3,3 0 0 1 192,277.9688 L192,326 A3,3 0 0 1 189,329 L25,329 A3,3 0 0 1 22,326 L22,258 A3,3 0 0 1 25,255 " fill="#FFFFFF" style="stroke: #000000; stroke-width: 1.5;"/><line style="stroke: #000000; stroke-width: 1.5;" x1="22" x2="189" y1="274.9688" y2="274.9688"/><text fill="#000000" font-family="Tahoma, sans-serif" font-size="12" font-weight="bold" lengthAdjust="spacingAndGlyphs" textLength="154" x="26" y="268.1387">Domain value objects</text><!--MD5=[600c2d25b6889bd4e9f6b335204b22ae]
cluster Repositories--><path d="M174,143 L266,143 A4.5,4.5 0 0 1 269,146 L276,162.9688 L358,162.9688 A3,3 0 0 1 361,165.9688 L361,224 A3,3 0 0 1 358,227 L174,227 A3,3 0 0 1 171,224 L171,146 A3,3 0 0 1 174,143 " fill="#FFFFFF" style="stroke: #000000; stroke-width: 1.5;"/><line style="stroke: #000000; stroke-width: 1.5;" x1="171" x2="276" y1="162.9688" y2="162.9688"/><text fill="#000000" font-family="Tahoma, sans-serif" font-size="12" font-weight="bold" lengthAdjust="spacingAndGlyphs" textLength="92" x="175" y="156.1387">Repositories</text><!--MD5=[6326b81c113285a9d7424a8f38b27174]
cluster Usecases--><path d="M221,251 L289,251 A4.5,4.5 0 0 1 292,254 L299,270.9688 L625,270.9688 A3,3 0 0 1 628,273.9688 L628,330 A3,3 0 0 1 625,333 L221,333 A3,3 0 0 1 218,330 L218,254 A3,3 0 0 1 221,251 " fill="#FFFFFF" style="stroke: #000000; stroke-width: 1.5;"/><line style="stroke: #000000; stroke-width: 1.5;" x1="218" x2="299" y1="270.9688" y2="270.9688"/><text fill="#000000" font-family="Tahoma, sans-serif" font-size="12" font-weight="bold" lengthAdjust="spacingAndGlyphs" textLength="68" x="222" y="264.1387">Usecases</text><ellipse cx="264.0833" cy="74.8774" fill="#F8F8F8" rx="51.0833" ry="12.8774" style="stroke: #383838; stroke-width: 0.5;"/><text fill="#000000" font-family="Tahoma, sans-serif" font-size="12" font-weight="bold" lengthAdjust="spacingAndGlyphs" textLength="68" x="230.0833" y="78.3618">AddEvent</text><ellipse cx="410.0221" cy="75.0044" fill="#F8F8F8" rx="83.0221" ry="19.0044" style="stroke: #383838; stroke-width: 0.5;"/><text fill="#000000" font-family="Tahoma, sans-serif" font-size="12" font-weight="bold" lengthAdjust="spacingAndGlyphs" textLength="144" x="338.0221" y="78.4888">GetLastDeployment</text><ellipse cx="561.977" cy="75.1954" fill="#F8F8F8" rx="56.477" ry="13.6954" style="stroke: #383838; stroke-width: 0.5;"/><text fill="#000000" font-family="Tahoma, sans-serif" font-size="12" font-weight="bold" lengthAdjust="spacingAndGlyphs" textLength="81" x="521.477" y="78.6798">GetMetrics</text><ellipse cx="466.7904" cy="410.8774" fill="#F8F8F8" rx="51.7904" ry="12.8774" style="stroke: #383838; stroke-width: 0.5;"/><text fill="#000000" font-family="Tahoma, sans-serif" font-size="12" lengthAdjust="spacingAndGlyphs" textLength="69" x="432.2904" y="414.3618">Dorametrix</text><ellipse cx="148.0416" cy="299.8774" fill="#F8F8F8" rx="27.0416" ry="12.8774" style="stroke: #383838; stroke-width: 0.5;"/><text fill="#000000" font-family="Tahoma, sans-serif" font-size="12" lengthAdjust="spacingAndGlyphs" textLength="34" x="131.0416" y="303.3618">Event</text><ellipse cx="265.9986" cy="193.1997" fill="#F8F8F8" rx="78.9986" ry="18.1997" style="stroke: #383838; stroke-width: 0.5;"/><text fill="#000000" font-family="Tahoma, sans-serif" font-size="12" lengthAdjust="spacingAndGlyphs" textLength="135" x="198.4986" y="196.6841">DynamoDbRepository</text><ellipse cx="288.2424" cy="300.2485" fill="#F8F8F8" rx="54.2424" ry="13.2485" style="stroke: #383838; stroke-width: 0.5;"/><text fill="#000000" font-family="Tahoma, sans-serif" font-size="12" lengthAdjust="spacingAndGlyphs" textLength="75" x="250.7424" y="303.7329">createEvent</text><ellipse cx="426.8555" cy="299.9711" fill="#F8F8F8" rx="72.8555" ry="16.9711" style="stroke: #383838; stroke-width: 0.5;"/><text fill="#000000" font-family="Tahoma, sans-serif" font-size="12" lengthAdjust="spacingAndGlyphs" textLength="121" x="366.3555" y="303.4555">getLastDeployment</text><ellipse cx="562.169" cy="299.8774" fill="#F8F8F8" rx="49.669" ry="12.8774" style="stroke: #383838; stroke-width: 0.5;"/><text fill="#000000" font-family="Tahoma, sans-serif" font-size="12" lengthAdjust="spacingAndGlyphs" textLength="66" x="529.169" y="303.3618">getMetrics</text><!--MD5=[d4d4e91abe83897258e60d35d41028dd]
link <b>AddEvent</b> to createEvent--><path d="M278.485,87.826 C289.709,96.7 305.851,108.845 321,118 C335.801,126.944 346.824,120.342 356,135 C379.583,172.672 373.628,194.201 356,235 C355.651,235.807 324.564,264.896 304.548,283.575 " fill="none" id="&lt;b&gt;AddEvent&lt;/b&gt;-&gt;createEvent" style="stroke: #000000; stroke-width: 1.0;"/><polygon fill="#000000" points="300.704,287.161,310.0137,283.9471,304.3603,283.7505,304.5569,278.097,300.704,287.161" style="stroke: #000000; stroke-width: 1.0;"/><!--MD5=[23a05f78fb5b4b085507427af03855d0]
link <b>AddEvent</b> to DynamoDbRepository--><path d="M264.214,88.414 C264.548,107.758 265.196,145.378 265.613,169.563 " fill="none" id="&lt;b&gt;AddEvent&lt;/b&gt;-&gt;DynamoDbRepository" style="stroke: #000000; stroke-width: 1.0;"/><polygon fill="#000000" points="265.704,174.806,269.5465,165.7376,265.6168,169.8068,261.5477,165.8771,265.704,174.806" style="stroke: #000000; stroke-width: 1.0;"/><!--MD5=[ec6ed4bb617ec0fec2cf85d25fa6a1a1]
link <b>AddEvent</b> to Event--><path d="M238.129,86.442 C217.897,96 190.796,112.15 176,135 C146.021,181.297 145.187,249.774 146.698,281.583 " fill="none" id="&lt;b&gt;AddEvent&lt;/b&gt;-&gt;Event" style="stroke: #000000; stroke-width: 1.0;"/><polygon fill="#000000" points="146.979,286.724,150.4846,277.5201,146.7076,281.7314,142.4963,277.9544,146.979,286.724" style="stroke: #000000; stroke-width: 1.0;"/><!--MD5=[3a0c44bfae1ff637d491d275c10eb228]
link getLastDeployment to Dorametrix--><path d="M432.902,317.083 C440.386,337.478 453.23,372.4755 460.836,393.2037 " fill="none" id="getLastDeployment-&gt;Dorametrix" style="stroke: #000000; stroke-width: 0.5;"/><polygon fill="#000000" points="462.559,397.899,463.2138,388.0719,460.8366,393.205,455.7034,390.8278,462.559,397.899" style="stroke: #000000; stroke-width: 0.5;"/><!--MD5=[585fd1502d0d7df48f8358740eb60224]
link <b>GetLastDeployment</b> to DynamoDbRepository--><path d="M388.442,93.366 C362.268,114.451 318.223,149.932 290.705,172.098 " fill="none" id="&lt;b&gt;GetLastDeployment&lt;/b&gt;-&gt;DynamoDbRepository" style="stroke: #000000; stroke-width: 1.0;"/><polygon fill="#000000" points="286.769,175.269,296.2866,172.7362,290.6622,172.1316,291.2668,166.5072,286.769,175.269" style="stroke: #000000; stroke-width: 1.0;"/><!--MD5=[bcae8591c8ee133b2e701f6095ccdcb4]
link <b>GetLastDeployment</b> to getLastDeployment--><path d="M411.391,94.249 C414.515,135.232 422.074,234.382 425.392,277.912 " fill="none" id="&lt;b&gt;GetLastDeployment&lt;/b&gt;-&gt;getLastDeployment" style="stroke: #000000; stroke-width: 1.0;"/><polygon fill="#000000" points="425.775,282.937,429.0795,273.659,425.395,277.9515,421.1026,274.267,425.775,282.937" style="stroke: #000000; stroke-width: 1.0;"/><!--MD5=[e30ef3fbb7c04e4137f58dfe26d99929]
link getMetrics to Dorametrix--><path d="M551.47,313.081 C534.188,332.91 499.819,372.3441 480.677,394.3069 " fill="none" id="getMetrics-&gt;Dorametrix" style="stroke: #000000; stroke-width: 0.5;"/><polygon fill="#000000" points="477.288,398.1958,486.2171,394.04,480.5735,394.4268,480.1867,388.7832,477.288,398.1958" style="stroke: #000000; stroke-width: 0.5;"/><!--MD5=[b54613dbdce505f468908134a8f8d923]
link <b>GetMetrics</b> to DynamoDbRepository--><path d="M546.683,87.997 C534.358,97.199 516.3,109.691 499,118 C442.038,145.359 372.522,165.924 324.321,178.345 " fill="none" id="&lt;b&gt;GetMetrics&lt;/b&gt;-&gt;DynamoDbRepository" style="stroke: #000000; stroke-width: 1.0;"/><polygon fill="#000000" points="319.432,179.596,329.1428,181.2393,324.2758,178.3561,327.159,173.4891,319.432,179.596" style="stroke: #000000; stroke-width: 1.0;"/><!--MD5=[2f9dc93f470c0f350321dbe1a70d98eb]
link <b>GetMetrics</b> to getMetrics--><path d="M562,88.628 C562,126.357 562,238.3 562,281.614 " fill="none" id="&lt;b&gt;GetMetrics&lt;/b&gt;-&gt;getMetrics" style="stroke: #000000; stroke-width: 1.0;"/><polygon fill="#000000" points="562,286.784,566,277.784,562,281.784,558,277.784,562,286.784" style="stroke: #000000; stroke-width: 1.0;"/><script type="text/plantuml"><![CDATA[MD5=[164f21cc4cf7ea0d3da4f799bfce3c9d]
@startuml

scale max 1920 width
top to bottom direction

skinparam nodesep 12
skinparam ranksep 25
skinparam monochrome true
skinparam shadowing false
skinparam defaultFontName Tahoma
skinparam defaultFontSize 12
skinparam roundCorner 6
skinparam dpi 150
skinparam arrowColor black
skinparam arrowThickness 0.5
skinparam packageTitleAlignment left

skinparam usecase {
  borderThickness 0.5
}

skinparam rectangle {
  borderThickness 0.5
}

skinparam component {
  borderThickness 1
}


package "Handlers/adapters" {
  (<b>AddEvent</b>)
  (<b>GetLastDeployment</b>)
  (<b>GetMetrics</b>)
}

package "Domain services" {
  (Dorametrix)
}

package "Domain value objects" {
  (Event)
}

package "Repositories" {
  (DynamoDbRepository)
}

package "Usecases" {
  (createEvent)
  (getLastDeployment)
  (getMetrics)
}

(<b>AddEvent</b>) ----[thickness=1]> (createEvent)
(<b>AddEvent</b>) ---[thickness=1]> (DynamoDbRepository)
(<b>AddEvent</b>) ----[thickness=1]> (Event)
(getLastDeployment) ---> (Dorametrix)
(<b>GetLastDeployment</b>) ---[thickness=1]> (DynamoDbRepository)
(<b>GetLastDeployment</b>) ----[thickness=1]> (getLastDeployment)
(getMetrics) ---> (Dorametrix)
(<b>GetMetrics</b>) ---[thickness=1]> (DynamoDbRepository)
(<b>GetMetrics</b>) ----[thickness=1]> (getMetrics)

@enduml


' View and edit on https://arkit.pro
]]></script></g></svg>