<?xml version="1.0" encoding="UTF-8" standalone="no"?><svg xmlns="http://www.w3.org/2000/svg" xmlns:xlink="http://www.w3.org/1999/xlink" contentScriptType="application/ecmascript" contentStyleType="text/css" height="461px" preserveAspectRatio="none" style="width:900px;height:461px;" version="1.1" viewBox="0 0 900 461" width="900px" zoomAndPan="magnify"><defs/><g><!--MD5=[8d58eb440f887f21433e844bf2601dc8]
cluster Handlers/adapters--><path d="M141,24 L277,24 A4.5,4.5 0 0 1 280,27 L287,43.9688 L885,43.9688 A3,3 0 0 1 888,46.9688 L888,116 A3,3 0 0 1 885,119 L141,119 A3,3 0 0 1 138,116 L138,27 A3,3 0 0 1 141,24 " fill="#FFFFFF" style="stroke: #000000; stroke-width: 1.5;"/><line style="stroke: #000000; stroke-width: 1.5;" x1="138" x2="287" y1="43.9688" y2="43.9688"/><text fill="#000000" font-family="Tahoma, sans-serif" font-size="12" font-weight="bold" lengthAdjust="spacingAndGlyphs" textLength="136" x="142" y="37.1387">Handlers/adapters</text><!--MD5=[40917519a219363998a5704983d04c91]
cluster Domain services--><path d="M488,375 L606,375 A4.5,4.5 0 0 1 609,378 L616,394.9688 L618,394.9688 A3,3 0 0 1 621,397.9688 L621,446 A3,3 0 0 1 618,449 L488,449 A3,3 0 0 1 485,446 L485,378 A3,3 0 0 1 488,375 " fill="#FFFFFF" style="stroke: #000000; stroke-width: 1.5;"/><line style="stroke: #000000; stroke-width: 1.5;" x1="485" x2="616" y1="394.9688" y2="394.9688"/><text fill="#000000" font-family="Tahoma, sans-serif" font-size="12" font-weight="bold" lengthAdjust="spacingAndGlyphs" textLength="118" x="489" y="388.1387">Domain services</text><!--MD5=[3fe454f5ee662415b72b39d1d24abdcd]
cluster Domain value objects--><path d="M25,264 L179,264 A4.5,4.5 0 0 1 182,267 L189,283.9688 L189,283.9688 A3,3 0 0 1 192,286.9688 L192,335 A3,3 0 0 1 189,338 L25,338 A3,3 0 0 1 22,335 L22,267 A3,3 0 0 1 25,264 " fill="#FFFFFF" style="stroke: #000000; stroke-width: 1.5;"/><line style="stroke: #000000; stroke-width: 1.5;" x1="22" x2="189" y1="283.9688" y2="283.9688"/><text fill="#000000" font-family="Tahoma, sans-serif" font-size="12" font-weight="bold" lengthAdjust="spacingAndGlyphs" textLength="154" x="26" y="277.1387">Domain value objects</text><!--MD5=[600c2d25b6889bd4e9f6b335204b22ae]
cluster Repositories--><path d="M133,152 L225,152 A4.5,4.5 0 0 1 228,155 L235,171.9688 L317,171.9688 A3,3 0 0 1 320,174.9688 L320,233 A3,3 0 0 1 317,236 L133,236 A3,3 0 0 1 130,233 L130,155 A3,3 0 0 1 133,152 " fill="#FFFFFF" style="stroke: #000000; stroke-width: 1.5;"/><line style="stroke: #000000; stroke-width: 1.5;" x1="130" x2="235" y1="171.9688" y2="171.9688"/><text fill="#000000" font-family="Tahoma, sans-serif" font-size="12" font-weight="bold" lengthAdjust="spacingAndGlyphs" textLength="92" x="134" y="165.1387">Repositories</text><!--MD5=[6326b81c113285a9d7424a8f38b27174]
cluster Usecases--><path d="M369,260 L437,260 A4.5,4.5 0 0 1 440,263 L447,279.9688 L775,279.9688 A3,3 0 0 1 778,282.9688 L778,339 A3,3 0 0 1 775,342 L369,342 A3,3 0 0 1 366,339 L366,263 A3,3 0 0 1 369,260 " fill="#FFFFFF" style="stroke: #000000; stroke-width: 1.5;"/><line style="stroke: #000000; stroke-width: 1.5;" x1="366" x2="447" y1="279.9688" y2="279.9688"/><text fill="#000000" font-family="Tahoma, sans-serif" font-size="12" font-weight="bold" lengthAdjust="spacingAndGlyphs" textLength="68" x="370" y="273.1387">Usecases</text><ellipse cx="785.1393" cy="79.7279" fill="#F8F8F8" rx="86.6393" ry="19.7279" style="stroke: #383838; stroke-width: 0.5;"/><text fill="#000000" font-family="Tahoma, sans-serif" font-size="12" font-weight="bold" lengthAdjust="spacingAndGlyphs" textLength="152" x="709.1393" y="83.2122">AuthorizerController</text><ellipse cx="224.774" cy="79.4548" fill="#F8F8F8" rx="70.274" ry="16.4548" style="stroke: #383838; stroke-width: 0.5;"/><text fill="#000000" font-family="Tahoma, sans-serif" font-size="12" font-weight="bold" lengthAdjust="spacingAndGlyphs" textLength="115" x="167.274" y="82.9392">EventController</text><ellipse cx="580.1545" cy="79.4309" fill="#F8F8F8" rx="105.1545" ry="23.4309" style="stroke: #383838; stroke-width: 0.5;"/><text fill="#000000" font-family="Tahoma, sans-serif" font-size="12" font-weight="bold" lengthAdjust="spacingAndGlyphs" textLength="192" x="484.1545" y="82.9153">LastDeploymentController</text><ellipse cx="384.847" cy="79.6694" fill="#F8F8F8" rx="76.347" ry="17.6694" style="stroke: #383838; stroke-width: 0.5;"/><text fill="#000000" font-family="Tahoma, sans-serif" font-size="12" font-weight="bold" lengthAdjust="spacingAndGlyphs" textLength="129" x="320.347" y="83.1538">MetricsController</text><ellipse cx="552.7904" cy="419.8774" fill="#F8F8F8" rx="51.7904" ry="12.8774" style="stroke: #383838; stroke-width: 0.5;"/><text fill="#000000" font-family="Tahoma, sans-serif" font-size="12" lengthAdjust="spacingAndGlyphs" textLength="69" x="518.2904" y="423.3618">Dorametrix</text><ellipse cx="107.0416" cy="308.8774" fill="#F8F8F8" rx="27.0416" ry="12.8774" style="stroke: #383838; stroke-width: 0.5;"/><text fill="#000000" font-family="Tahoma, sans-serif" font-size="12" lengthAdjust="spacingAndGlyphs" textLength="34" x="90.0416" y="312.3618">Event</text><ellipse cx="224.9986" cy="202.1997" fill="#F8F8F8" rx="78.9986" ry="18.1997" style="stroke: #383838; stroke-width: 0.5;"/><text fill="#000000" font-family="Tahoma, sans-serif" font-size="12" lengthAdjust="spacingAndGlyphs" textLength="135" x="157.4986" y="205.6841">DynamoDbRepository</text><ellipse cx="436.2424" cy="309.2485" fill="#F8F8F8" rx="54.2424" ry="13.2485" style="stroke: #383838; stroke-width: 0.5;"/><text fill="#000000" font-family="Tahoma, sans-serif" font-size="12" lengthAdjust="spacingAndGlyphs" textLength="75" x="398.7424" y="312.7329">createEvent</text><ellipse cx="688.8555" cy="308.9711" fill="#F8F8F8" rx="72.8555" ry="16.9711" style="stroke: #383838; stroke-width: 0.5;"/><text fill="#000000" font-family="Tahoma, sans-serif" font-size="12" lengthAdjust="spacingAndGlyphs" textLength="121" x="628.3555" y="312.4555">getLastDeployment</text><ellipse cx="553.169" cy="308.8774" fill="#F8F8F8" rx="49.669" ry="12.8774" style="stroke: #383838; stroke-width: 0.5;"/><text fill="#000000" font-family="Tahoma, sans-serif" font-size="12" lengthAdjust="spacingAndGlyphs" textLength="66" x="520.169" y="312.3618">getMetrics</text><!--MD5=[33048631ba65261db8c4cf58d9e1f2d8]
link <b>EventController</b> to createEvent--><path d="M249.913,95.022 C268.945,106.807 295.187,124.602 315,144 C363.679,191.657 407.577,260.392 426.352,291.545 " fill="none" id="&lt;b&gt;EventController&lt;/b&gt;-&gt;createEvent" style="stroke: #000000; stroke-width: 1.0;"/><polygon fill="#000000" points="428.937,295.861,427.7442,286.0846,426.3679,291.5715,420.881,290.1952,428.937,295.861" style="stroke: #000000; stroke-width: 1.0;"/><!--MD5=[7222f3a86c799d46a14ddb57be99f614]
link <b>EventController</b> to DynamoDbRepository--><path d="M225,96.253 C225,117.249 225,154.532 225,178.489 " fill="none" id="&lt;b&gt;EventController&lt;/b&gt;-&gt;DynamoDbRepository" style="stroke: #000000; stroke-width: 1.0;"/><polygon fill="#000000" points="225,183.683,229,174.683,225,178.683,221,174.683,225,183.683" style="stroke: #000000; stroke-width: 1.0;"/><!--MD5=[730c995762882da4d9efc114df105dc3]
link <b>EventController</b> to Event--><path d="M193.798,94.543 C173.769,105.214 148.976,121.842 135,144 C105.575,190.651 104.4681,258.954 105.8053,290.652 " fill="none" id="&lt;b&gt;EventController&lt;/b&gt;-&gt;Event" style="stroke: #000000; stroke-width: 1.0;"/><polygon fill="#000000" points="106.057,295.774,109.6124,286.5893,105.8127,290.78,101.622,286.9802,106.057,295.774" style="stroke: #000000; stroke-width: 1.0;"/><!--MD5=[3a0c44bfae1ff637d491d275c10eb228]
link getLastDeployment to Dorametrix--><path d="M669.515,325.617 C643.301,346.627 597.016,383.7225 571.381,404.2685 " fill="none" id="getLastDeployment-&gt;Dorametrix" style="stroke: #000000; stroke-width: 0.5;"/><polygon fill="#000000" points="567.45,407.419,576.9743,404.9115,571.3515,404.2919,571.971,398.6691,567.45,407.419" style="stroke: #000000; stroke-width: 0.5;"/><!--MD5=[e30ef3fbb7c04e4137f58dfe26d99929]
link getMetrics to Dorametrix--><path d="M553,322.081 C553,341.478 553,379.6361 553,401.8478 " fill="none" id="getMetrics-&gt;Dorametrix" style="stroke: #000000; stroke-width: 0.5;"/><polygon fill="#000000" points="553,406.8645,557,397.8645,553,401.8645,549,397.8645,553,406.8645" style="stroke: #000000; stroke-width: 0.5;"/><!--MD5=[d7d4ba07ce126d6d60148c55adb082f5]
link <b>LastDeploymentController</b> to Dorametrix--><path d="M535.143,100.83 C466.435,132.307 343,190.34 343,201 C343,201 343,201 343,310 C343,380.5183 437.438,405.4752 499.654,414.2653 " fill="none" id="&lt;b&gt;LastDeploymentController&lt;/b&gt;-&gt;Dorametrix" style="stroke: #000000; stroke-width: 1.0;"/><polygon fill="#000000" points="504.822,414.969,496.4451,409.7894,499.8679,414.2933,495.364,417.7161,504.822,414.969" style="stroke: #000000; stroke-width: 1.0;"/><!--MD5=[042693883f038f2ab528f24028f7c402]
link <b>LastDeploymentController</b> to getLastDeployment--><path d="M590.85,103.145 C612.056,147.407 658.709,244.779 679.116,287.371 " fill="none" id="&lt;b&gt;LastDeploymentController&lt;/b&gt;-&gt;getLastDeployment" style="stroke: #000000; stroke-width: 1.0;"/><polygon fill="#000000" points="681.356,292.045,681.0748,282.2002,679.1957,287.5358,673.8601,285.6567,681.356,292.045" style="stroke: #000000; stroke-width: 1.0;"/><!--MD5=[0de1827c2b1540bc7e2c43612cde184d]
link <b>MetricsController</b> to DynamoDbRepository--><path d="M363.753,96.501 C334.629,118.436 282.35,157.808 250.947,181.458 " fill="none" id="&lt;b&gt;MetricsController&lt;/b&gt;-&gt;DynamoDbRepository" style="stroke: #000000; stroke-width: 1.0;"/><polygon fill="#000000" points="246.848,184.546,256.4435,182.3263,250.8418,181.5378,251.6303,175.9361,246.848,184.546" style="stroke: #000000; stroke-width: 1.0;"/><!--MD5=[abc0d92def58ff7884aed8372210ebbe]
link <b>MetricsController</b> to getMetrics--><path d="M397.082,96.861 C428.141,138.92 510.478,250.419 541.212,292.037 " fill="none" id="&lt;b&gt;MetricsController&lt;/b&gt;-&gt;getMetrics" style="stroke: #000000; stroke-width: 1.0;"/><polygon fill="#000000" points="544.191,296.072,542.0635,286.4557,541.2213,292.0495,535.6274,291.2073,544.191,296.072" style="stroke: #000000; stroke-width: 1.0;"/><script type="text/plantuml"><![CDATA[MD5=[9922bb2e8c3b2d5a11bec3c76bd8fac7]
@startuml

scale max 1920 width
top to bottom direction

skinparam nodesep 13
skinparam ranksep 25
skinparam monochrome true
skinparam shadowing false
skinparam defaultFontName Tahoma
skinparam defaultFontSize 12
skinparam roundCorner 6
skinparam dpi 150
skinparam arrowColor black
skinparam arrowThickness 0.5
skinparam packageTitleAlignment left

skinparam usecase {
  borderThickness 0.5
}

skinparam rectangle {
  borderThickness 0.5
}

skinparam component {
  borderThickness 1
}


package "Handlers/adapters" {
  (<b>AuthorizerController</b>)
  (<b>EventController</b>)
  (<b>LastDeploymentController</b>)
  (<b>MetricsController</b>)
}

package "Domain services" {
  (Dorametrix)
}

package "Domain value objects" {
  (Event)
}

package "Repositories" {
  (DynamoDbRepository)
}

package "Usecases" {
  (createEvent)
  (getLastDeployment)
  (getMetrics)
}

(<b>EventController</b>) ----[thickness=1]> (createEvent)
(<b>EventController</b>) ---[thickness=1]> (DynamoDbRepository)
(<b>EventController</b>) ----[thickness=1]> (Event)
(getLastDeployment) ---> (Dorametrix)
(getMetrics) ---> (Dorametrix)
(<b>LastDeploymentController</b>) ----[thickness=1]> (Dorametrix)
(<b>LastDeploymentController</b>) ----[thickness=1]> (getLastDeployment)
(<b>MetricsController</b>) ---[thickness=1]> (DynamoDbRepository)
(<b>MetricsController</b>) ----[thickness=1]> (getMetrics)

@enduml


' View and edit on https://arkit.pro
]]></script></g></svg>