<?xml version="1.0" encoding="UTF-8" standalone="no"?><svg xmlns="http://www.w3.org/2000/svg" xmlns:xlink="http://www.w3.org/1999/xlink" contentScriptType="application/ecmascript" contentStyleType="text/css" height="452px" preserveAspectRatio="none" style="width:614px;height:452px;" version="1.1" viewBox="0 0 614 452" width="614px" zoomAndPan="magnify"><defs/><g><!--MD5=[8d58eb440f887f21433e844bf2601dc8]
cluster Handlers/adapters--><path d="M196,24 L318,24 A4.5,4.5 0 0 1 321,27 L328,44.4844 L599,44.4844 A3,3 0 0 1 602,47.4844 L602,106 A3,3 0 0 1 599,109 L196,109 A3,3 0 0 1 193,106 L193,27 A3,3 0 0 1 196,24 " fill="#FFFFFF" style="stroke: #000000; stroke-width: 1.5;"/><line style="stroke: #000000; stroke-width: 1.5;" x1="193" x2="328" y1="44.4844" y2="44.4844"/><text fill="#000000" font-family="Tahoma, sans-serif" font-size="12" font-weight="bold" lengthAdjust="spacingAndGlyphs" textLength="122" x="197" y="38.0059">Handlers/adapters</text><!--MD5=[40917519a219363998a5704983d04c91]
cluster Domain services--><path d="M384,365 L495,365 A4.5,4.5 0 0 1 498,368 L505,385.4844 L506,385.4844 A3,3 0 0 1 509,388.4844 L509,437 A3,3 0 0 1 506,440 L384,440 A3,3 0 0 1 381,437 L381,368 A3,3 0 0 1 384,365 " fill="#FFFFFF" style="stroke: #000000; stroke-width: 1.5;"/><line style="stroke: #000000; stroke-width: 1.5;" x1="381" x2="505" y1="385.4844" y2="385.4844"/><text fill="#000000" font-family="Tahoma, sans-serif" font-size="12" font-weight="bold" lengthAdjust="spacingAndGlyphs" textLength="111" x="385" y="379.0059">Domain services</text><!--MD5=[3fe454f5ee662415b72b39d1d24abdcd]
cluster Domain value objects--><path d="M25,253.5 L170,253.5 A4.5,4.5 0 0 1 173,256.5 L180,273.9844 L180,273.9844 A3,3 0 0 1 183,276.9844 L183,325.5 A3,3 0 0 1 180,328.5 L25,328.5 A3,3 0 0 1 22,325.5 L22,256.5 A3,3 0 0 1 25,253.5 " fill="#FFFFFF" style="stroke: #000000; stroke-width: 1.5;"/><line style="stroke: #000000; stroke-width: 1.5;" x1="22" x2="180" y1="273.9844" y2="273.9844"/><text fill="#000000" font-family="Tahoma, sans-serif" font-size="12" font-weight="bold" lengthAdjust="spacingAndGlyphs" textLength="145" x="26" y="267.5059">Domain value objects</text><!--MD5=[600c2d25b6889bd4e9f6b335204b22ae]
cluster Repositories--><path d="M168,142 L252,142 A4.5,4.5 0 0 1 255,145 L262,162.4844 L344,162.4844 A3,3 0 0 1 347,165.4844 L347,223 A3,3 0 0 1 344,226 L168,226 A3,3 0 0 1 165,223 L165,145 A3,3 0 0 1 168,142 " fill="#FFFFFF" style="stroke: #000000; stroke-width: 1.5;"/><line style="stroke: #000000; stroke-width: 1.5;" x1="165" x2="262" y1="162.4844" y2="162.4844"/><text fill="#000000" font-family="Tahoma, sans-serif" font-size="12" font-weight="bold" lengthAdjust="spacingAndGlyphs" textLength="84" x="169" y="156.0059">Repositories</text><!--MD5=[6326b81c113285a9d7424a8f38b27174]
cluster Usecases--><path d="M211,250 L276,250 A4.5,4.5 0 0 1 279,253 L286,270.4844 L591,270.4844 A3,3 0 0 1 594,273.4844 L594,329 A3,3 0 0 1 591,332 L211,332 A3,3 0 0 1 208,329 L208,253 A3,3 0 0 1 211,250 " fill="#FFFFFF" style="stroke: #000000; stroke-width: 1.5;"/><line style="stroke: #000000; stroke-width: 1.5;" x1="208" x2="286" y1="270.4844" y2="270.4844"/><text fill="#000000" font-family="Tahoma, sans-serif" font-size="12" font-weight="bold" lengthAdjust="spacingAndGlyphs" textLength="65" x="212" y="264.0059">Usecases</text><ellipse cx="254.9264" cy="75.242" fill="#F8F8F8" rx="45.4264" ry="13.242" style="stroke: #383838; stroke-width: 0.5;"/><text fill="#000000" font-family="Tahoma, sans-serif" font-size="12" font-weight="bold" lengthAdjust="spacingAndGlyphs" textLength="60" x="224.9264" y="78.9842">AddEvent</text><ellipse cx="389.9059" cy="74.8812" fill="#F8F8F8" rx="77.4059" ry="17.8812" style="stroke: #383838; stroke-width: 0.5;"/><text fill="#000000" font-family="Tahoma, sans-serif" font-size="12" font-weight="bold" lengthAdjust="spacingAndGlyphs" textLength="130" x="324.9059" y="78.6234">GetLastDeployment</text><ellipse cx="533.2046" cy="75.242" fill="#F8F8F8" rx="53.2046" ry="13.242" style="stroke: #383838; stroke-width: 0.5;"/><text fill="#000000" font-family="Tahoma, sans-serif" font-size="12" font-weight="bold" lengthAdjust="spacingAndGlyphs" textLength="71" x="497.7046" y="78.9842">GetMetrics</text><ellipse cx="445.0477" cy="411.242" fill="#F8F8F8" rx="47.5477" ry="13.242" style="stroke: #383838; stroke-width: 0.5;"/><text fill="#000000" font-family="Tahoma, sans-serif" font-size="12" lengthAdjust="spacingAndGlyphs" textLength="63" x="413.5477" y="414.9842">Dorametrix</text><ellipse cx="141.9203" cy="299.742" fill="#F8F8F8" rx="24.9203" ry="13.242" style="stroke: #383838; stroke-width: 0.5;"/><text fill="#000000" font-family="Tahoma, sans-serif" font-size="12" lengthAdjust="spacingAndGlyphs" textLength="31" x="126.4203" y="303.4842">Event</text><ellipse cx="256.2321" cy="192.4464" fill="#F8F8F8" rx="75.2321" ry="17.4464" style="stroke: #383838; stroke-width: 0.5;"/><text fill="#000000" font-family="Tahoma, sans-serif" font-size="12" lengthAdjust="spacingAndGlyphs" textLength="125" x="193.7321" y="196.1886">DynamoDbRepository</text><ellipse cx="274.8762" cy="299.742" fill="#F8F8F8" rx="50.3762" ry="13.242" style="stroke: #383838; stroke-width: 0.5;"/><text fill="#000000" font-family="Tahoma, sans-serif" font-size="12" lengthAdjust="spacingAndGlyphs" textLength="67" x="241.3762" y="303.4842">createEvent</text><ellipse cx="406.7683" cy="299.2537" fill="#F8F8F8" rx="69.2683" ry="16.2537" style="stroke: #383838; stroke-width: 0.5;"/><text fill="#000000" font-family="Tahoma, sans-serif" font-size="12" lengthAdjust="spacingAndGlyphs" textLength="111" x="351.2683" y="302.9958">getLastDeployment</text><ellipse cx="533.2193" cy="299.742" fill="#F8F8F8" rx="44.7193" ry="13.242" style="stroke: #383838; stroke-width: 0.5;"/><text fill="#000000" font-family="Tahoma, sans-serif" font-size="12" lengthAdjust="spacingAndGlyphs" textLength="59" x="503.7193" y="303.4842">getMetrics</text><!--MD5=[d4d4e91abe83897258e60d35d41028dd]
link <b>AddEvent</b> to createEvent--><path d="M268.096,87.627 C278.273,96.334 292.973,108.208 307,117 C321.653,126.185 332.824,119.342 342,134 C365.583,171.672 361.253,193.942 342,234 C339.534,239.13 336.249,238.213 332,242 C317.233,255.159 301.317,271.097 290.066,282.686 " fill="none" id="&lt;b&gt;AddEvent&lt;/b&gt;-&gt;createEvent" style="stroke: #000000; stroke-width: 1.0;"/><polygon fill="#000000" points="286.438,286.439,295.5691,282.7479,289.913,282.844,289.817,277.1879,286.438,286.439" style="stroke: #000000; stroke-width: 1.0;"/><!--MD5=[23a05f78fb5b4b085507427af03855d0]
link <b>AddEvent</b> to DynamoDbRepository--><path d="M255.107,88.361 C255.275,107.729 255.602,145.5 255.81,169.564 " fill="none" id="&lt;b&gt;AddEvent&lt;/b&gt;-&gt;DynamoDbRepository" style="stroke: #000000; stroke-width: 1.0;"/><polygon fill="#000000" points="255.855,174.775,259.7777,165.741,255.8121,169.7752,251.778,165.8096,255.855,174.775" style="stroke: #000000; stroke-width: 1.0;"/><!--MD5=[ec6ed4bb617ec0fec2cf85d25fa6a1a1]
link <b>AddEvent</b> to Event--><path d="M230.397,86.184 C210.808,95.622 184.371,111.594 170,134 C140.134,180.564 139.244,249.188 140.72,281.055 " fill="none" id="&lt;b&gt;AddEvent&lt;/b&gt;-&gt;Event" style="stroke: #000000; stroke-width: 1.0;"/><polygon fill="#000000" points="140.995,286.205,144.5111,277.0051,140.7293,281.2121,136.5224,277.4303,140.995,286.205" style="stroke: #000000; stroke-width: 1.0;"/><!--MD5=[3a0c44bfae1ff637d491d275c10eb228]
link getLastDeployment to Dorametrix--><path d="M412.444,316.189 C419.55,336.664 431.934,372.3481 439.207,393.3072 " fill="none" id="getLastDeployment-&gt;Dorametrix" style="stroke: #000000; stroke-width: 0.5;"/><polygon fill="#000000" points="440.852,398.0486,441.6797,388.2346,439.2125,393.325,434.122,390.8578,440.852,398.0486" style="stroke: #000000; stroke-width: 0.5;"/><!--MD5=[585fd1502d0d7df48f8358740eb60224]
link <b>GetLastDeployment</b> to DynamoDbRepository--><path d="M370.801,92.548 C346.484,113.508 304.638,149.577 278.745,171.895 " fill="none" id="&lt;b&gt;GetLastDeployment&lt;/b&gt;-&gt;DynamoDbRepository" style="stroke: #000000; stroke-width: 1.0;"/><polygon fill="#000000" points="274.731,175.355,284.1597,172.5089,278.5183,172.0906,278.9366,166.4492,274.731,175.355" style="stroke: #000000; stroke-width: 1.0;"/><!--MD5=[bcae8591c8ee133b2e701f6095ccdcb4]
link <b>GetLastDeployment</b> to getLastDeployment--><path d="M391.306,93.09 C394.384,133.377 402.086,234.179 405.42,277.821 " fill="none" id="&lt;b&gt;GetLastDeployment&lt;/b&gt;-&gt;getLastDeployment" style="stroke: #000000; stroke-width: 1.0;"/><polygon fill="#000000" points="405.804,282.851,409.1085,273.573,405.424,277.8655,401.1316,274.181,405.804,282.851" style="stroke: #000000; stroke-width: 1.0;"/><!--MD5=[e30ef3fbb7c04e4137f58dfe26d99929]
link getMetrics to Dorametrix--><path d="M523.582,312.218 C507.721,331.955 475.662,371.847 457.783,394.0941 " fill="none" id="getMetrics-&gt;Dorametrix" style="stroke: #000000; stroke-width: 0.5;"/><polygon fill="#000000" points="454.617,398.0339,463.3729,393.5246,457.7493,394.1366,457.1372,388.513,454.617,398.0339" style="stroke: #000000; stroke-width: 0.5;"/><!--MD5=[b54613dbdce505f468908134a8f8d923]
link <b>GetMetrics</b> to DynamoDbRepository--><path d="M518.683,87.651 C507.155,96.6 490.251,108.78 474,117 C420.453,144.086 354.793,165.012 309.61,177.696 " fill="none" id="&lt;b&gt;GetMetrics&lt;/b&gt;-&gt;DynamoDbRepository" style="stroke: #000000; stroke-width: 1.0;"/><polygon fill="#000000" points="304.754,179.049,314.4977,180.4846,309.5703,177.706,312.3489,172.7786,304.754,179.049" style="stroke: #000000; stroke-width: 1.0;"/><!--MD5=[2f9dc93f470c0f350321dbe1a70d98eb]
link <b>GetMetrics</b> to getMetrics--><path d="M533,88.279 C533,125.585 533,237.685 533,281.079 " fill="none" id="&lt;b&gt;GetMetrics&lt;/b&gt;-&gt;getMetrics" style="stroke: #000000; stroke-width: 1.0;"/><polygon fill="#000000" points="533,286.258,537,277.258,533,281.258,529,277.258,533,286.258" style="stroke: #000000; stroke-width: 1.0;"/><script type="text/plantuml"><![CDATA[MD5=[164f21cc4cf7ea0d3da4f799bfce3c9d]
@startuml

scale max 1920 width
top to bottom direction

skinparam nodesep 12
skinparam ranksep 25
skinparam monochrome true
skinparam shadowing false
skinparam defaultFontName Tahoma
skinparam defaultFontSize 12
skinparam roundCorner 6
skinparam dpi 150
skinparam arrowColor black
skinparam arrowThickness 0.5
skinparam packageTitleAlignment left

skinparam usecase {
  borderThickness 0.5
}

skinparam rectangle {
  borderThickness 0.5
}

skinparam component {
  borderThickness 1
}


package "Handlers/adapters" {
  (<b>AddEvent</b>)
  (<b>GetLastDeployment</b>)
  (<b>GetMetrics</b>)
}

package "Domain services" {
  (Dorametrix)
}

package "Domain value objects" {
  (Event)
}

package "Repositories" {
  (DynamoDbRepository)
}

package "Usecases" {
  (createEvent)
  (getLastDeployment)
  (getMetrics)
}

(<b>AddEvent</b>) ----[thickness=1]> (createEvent)
(<b>AddEvent</b>) ---[thickness=1]> (DynamoDbRepository)
(<b>AddEvent</b>) ----[thickness=1]> (Event)
(getLastDeployment) ---> (Dorametrix)
(<b>GetLastDeployment</b>) ---[thickness=1]> (DynamoDbRepository)
(<b>GetLastDeployment</b>) ----[thickness=1]> (getLastDeployment)
(getMetrics) ---> (Dorametrix)
(<b>GetMetrics</b>) ---[thickness=1]> (DynamoDbRepository)
(<b>GetMetrics</b>) ----[thickness=1]> (getMetrics)

@enduml


' View and edit on https://arkit.pro
]]></script></g></svg>