<?xml version="1.0" encoding="UTF-8" standalone="no"?><svg xmlns="http://www.w3.org/2000/svg" xmlns:xlink="http://www.w3.org/1999/xlink" contentScriptType="application/ecmascript" contentStyleType="text/css" height="463px" preserveAspectRatio="none" style="width:794px;height:463px;" version="1.1" viewBox="0 0 794 463" width="794px" zoomAndPan="magnify"><defs/><g><!--MD5=[8d58eb440f887f21433e844bf2601dc8]
cluster Handlers/adapters--><path d="M25,24 L161,24 A4.5,4.5 0 0 1 164,27 L171,43.9688 L779,43.9688 A3,3 0 0 1 782,46.9688 L782,118 A3,3 0 0 1 779,121 L25,121 A3,3 0 0 1 22,118 L22,27 A3,3 0 0 1 25,24 " fill="#FFFFFF" style="stroke: #000000; stroke-width: 1.5;"/><line style="stroke: #000000; stroke-width: 1.5;" x1="22" x2="171" y1="43.9688" y2="43.9688"/><text fill="#000000" font-family="Tahoma, sans-serif" font-size="12" font-weight="bold" lengthAdjust="spacingAndGlyphs" textLength="136" x="26" y="37.1387">Handlers/adapters</text><!--MD5=[40917519a219363998a5704983d04c91]
cluster Domain services--><path d="M479,377 L597,377 A4.5,4.5 0 0 1 600,380 L607,396.9688 L609,396.9688 A3,3 0 0 1 612,399.9688 L612,448 A3,3 0 0 1 609,451 L479,451 A3,3 0 0 1 476,448 L476,380 A3,3 0 0 1 479,377 " fill="#FFFFFF" style="stroke: #000000; stroke-width: 1.5;"/><line style="stroke: #000000; stroke-width: 1.5;" x1="476" x2="607" y1="396.9688" y2="396.9688"/><text fill="#000000" font-family="Tahoma, sans-serif" font-size="12" font-weight="bold" lengthAdjust="spacingAndGlyphs" textLength="118" x="480" y="390.1387">Domain services</text><!--MD5=[3fe454f5ee662415b72b39d1d24abdcd]
cluster Domain value objects--><path d="M49,266 L203,266 A4.5,4.5 0 0 1 206,269 L213,285.9688 L213,285.9688 A3,3 0 0 1 216,288.9688 L216,337 A3,3 0 0 1 213,340 L49,340 A3,3 0 0 1 46,337 L46,269 A3,3 0 0 1 49,266 " fill="#FFFFFF" style="stroke: #000000; stroke-width: 1.5;"/><line style="stroke: #000000; stroke-width: 1.5;" x1="46" x2="213" y1="285.9688" y2="285.9688"/><text fill="#000000" font-family="Tahoma, sans-serif" font-size="12" font-weight="bold" lengthAdjust="spacingAndGlyphs" textLength="154" x="50" y="279.1387">Domain value objects</text><!--MD5=[600c2d25b6889bd4e9f6b335204b22ae]
cluster Repositories--><path d="M154,154 L246,154 A4.5,4.5 0 0 1 249,157 L256,173.9688 L338,173.9688 A3,3 0 0 1 341,176.9688 L341,235 A3,3 0 0 1 338,238 L154,238 A3,3 0 0 1 151,235 L151,157 A3,3 0 0 1 154,154 " fill="#FFFFFF" style="stroke: #000000; stroke-width: 1.5;"/><line style="stroke: #000000; stroke-width: 1.5;" x1="151" x2="256" y1="173.9688" y2="173.9688"/><text fill="#000000" font-family="Tahoma, sans-serif" font-size="12" font-weight="bold" lengthAdjust="spacingAndGlyphs" textLength="92" x="155" y="167.1387">Repositories</text><!--MD5=[6326b81c113285a9d7424a8f38b27174]
cluster Usecases--><path d="M297,262 L365,262 A4.5,4.5 0 0 1 368,265 L375,281.9688 L703,281.9688 A3,3 0 0 1 706,284.9688 L706,341 A3,3 0 0 1 703,344 L297,344 A3,3 0 0 1 294,341 L294,265 A3,3 0 0 1 297,262 " fill="#FFFFFF" style="stroke: #000000; stroke-width: 1.5;"/><line style="stroke: #000000; stroke-width: 1.5;" x1="294" x2="375" y1="281.9688" y2="281.9688"/><text fill="#000000" font-family="Tahoma, sans-serif" font-size="12" font-weight="bold" lengthAdjust="spacingAndGlyphs" textLength="68" x="298" y="275.1387">Usecases</text><ellipse cx="113.0946" cy="80.3189" fill="#F8F8F8" rx="74.5946" ry="17.3189" style="stroke: #383838; stroke-width: 0.5;"/><text fill="#000000" font-family="Tahoma, sans-serif" font-size="12" font-weight="bold" lengthAdjust="spacingAndGlyphs" textLength="125" x="50.5946" y="83.8033">AddEventHandler</text><ellipse cx="511.9986" cy="80.6997" fill="#F8F8F8" rx="78.9986" ry="18.1997" style="stroke: #383838; stroke-width: 0.5;"/><text fill="#000000" font-family="Tahoma, sans-serif" font-size="12" font-weight="bold" lengthAdjust="spacingAndGlyphs" textLength="135" x="444.4986" y="84.1841">AuthorizerHandler</text><ellipse cx="309.8945" cy="80.2789" fill="#F8F8F8" rx="109.3945" ry="24.2789" style="stroke: #383838; stroke-width: 0.5;"/><text fill="#000000" font-family="Tahoma, sans-serif" font-size="12" font-weight="bold" lengthAdjust="spacingAndGlyphs" textLength="201" x="209.3945" y="83.7633">GetLastDeploymentHandler</text><ellipse cx="684.8339" cy="80.4668" fill="#F8F8F8" rx="80.3339" ry="18.4668" style="stroke: #383838; stroke-width: 0.5;"/><text fill="#000000" font-family="Tahoma, sans-serif" font-size="12" font-weight="bold" lengthAdjust="spacingAndGlyphs" textLength="138" x="615.8339" y="83.9512">GetMetricsHandler</text><ellipse cx="543.7904" cy="421.8774" fill="#F8F8F8" rx="51.7904" ry="12.8774" style="stroke: #383838; stroke-width: 0.5;"/><text fill="#000000" font-family="Tahoma, sans-serif" font-size="12" lengthAdjust="spacingAndGlyphs" textLength="69" x="509.2904" y="425.3618">Dorametrix</text><ellipse cx="113.0416" cy="310.8774" fill="#F8F8F8" rx="27.0416" ry="12.8774" style="stroke: #383838; stroke-width: 0.5;"/><text fill="#000000" font-family="Tahoma, sans-serif" font-size="12" lengthAdjust="spacingAndGlyphs" textLength="34" x="96.0416" y="314.3618">Event</text><ellipse cx="245.9986" cy="204.1997" fill="#F8F8F8" rx="78.9986" ry="18.1997" style="stroke: #383838; stroke-width: 0.5;"/><text fill="#000000" font-family="Tahoma, sans-serif" font-size="12" lengthAdjust="spacingAndGlyphs" textLength="135" x="178.4986" y="207.6841">DynamoDbRepository</text><ellipse cx="364.2424" cy="311.2485" fill="#F8F8F8" rx="54.2424" ry="13.2485" style="stroke: #383838; stroke-width: 0.5;"/><text fill="#000000" font-family="Tahoma, sans-serif" font-size="12" lengthAdjust="spacingAndGlyphs" textLength="75" x="326.7424" y="314.7329">createEvent</text><ellipse cx="503.8555" cy="310.9711" fill="#F8F8F8" rx="72.8555" ry="16.9711" style="stroke: #383838; stroke-width: 0.5;"/><text fill="#000000" font-family="Tahoma, sans-serif" font-size="12" lengthAdjust="spacingAndGlyphs" textLength="121" x="443.3555" y="314.4555">getLastDeployment</text><ellipse cx="640.169" cy="310.8774" fill="#F8F8F8" rx="49.669" ry="12.8774" style="stroke: #383838; stroke-width: 0.5;"/><text fill="#000000" font-family="Tahoma, sans-serif" font-size="12" lengthAdjust="spacingAndGlyphs" textLength="66" x="607.169" y="314.3618">getMetrics</text><!--MD5=[fff749b9c89b10f370d6b1d045c8b613]
link <b>AddEventHandler</b> to createEvent--><path d="M134.498,97.434 C150.173,108.194 172.37,121.718 194,129 C224.12,139.141 312.973,124.096 336,146 C376.724,184.739 371.716,259.341 366.97,292.904 " fill="none" id="&lt;b&gt;AddEventHandler&lt;/b&gt;-&gt;createEvent" style="stroke: #000000; stroke-width: 1.0;"/><polygon fill="#000000" points="366.217,297.926,371.5048,289.617,366.9569,292.981,363.5928,288.4332,366.217,297.926" style="stroke: #000000; stroke-width: 1.0;"/><!--MD5=[e2bb59898ffc704e015d69eba3bd9b4a]
link <b>AddEventHandler</b> to DynamoDbRepository--><path d="M130.661,97.634 C154.772,119.66 197.973,159.126 224.111,183.003 " fill="none" id="&lt;b&gt;AddEventHandler&lt;/b&gt;-&gt;DynamoDbRepository" style="stroke: #000000; stroke-width: 1.0;"/><polygon fill="#000000" points="227.839,186.409,223.8929,177.3852,224.1478,183.0363,218.4967,183.2912,227.839,186.409" style="stroke: #000000; stroke-width: 1.0;"/><!--MD5=[49a1d289be9e429e21866f2a99f1ae5d]
link <b>AddEventHandler</b> to Event--><path d="M113,98.302 C113,140.407 113,250.098 113,292.715 " fill="none" id="&lt;b&gt;AddEventHandler&lt;/b&gt;-&gt;Event" style="stroke: #000000; stroke-width: 1.0;"/><polygon fill="#000000" points="113,297.804,117,288.804,113,292.804,109,288.804,113,297.804" style="stroke: #000000; stroke-width: 1.0;"/><!--MD5=[3a0c44bfae1ff637d491d275c10eb228]
link getLastDeployment to Dorametrix--><path d="M509.902,328.083 C517.386,348.478 530.23,383.4755 537.836,404.2037 " fill="none" id="getLastDeployment-&gt;Dorametrix" style="stroke: #000000; stroke-width: 0.5;"/><polygon fill="#000000" points="539.559,408.899,540.2138,399.0719,537.8366,404.205,532.7034,401.8278,539.559,408.899" style="stroke: #000000; stroke-width: 0.5;"/><!--MD5=[ebce8d582b8d9afc621e42e14165d703]
link <b>GetLastDeploymentHandler</b> to DynamoDbRepository--><path d="M297.66,104.926 C286.043,126.98 268.783,159.748 257.462,181.24 " fill="none" id="&lt;b&gt;GetLastDeploymentHandler&lt;/b&gt;-&gt;DynamoDbRepository" style="stroke: #000000; stroke-width: 1.0;"/><polygon fill="#000000" points="255,185.914,262.7345,179.8166,257.331,181.4906,255.657,176.0871,255,185.914" style="stroke: #000000; stroke-width: 1.0;"/><!--MD5=[6331cc65f6200718e97590f3406fba33]
link <b>GetLastDeploymentHandler</b> to getLastDeployment--><path d="M338.898,104.321 C350.327,113.906 363.269,125.49 374,137 C421.568,188.018 468.517,256.03 490.725,289.552 " fill="none" id="&lt;b&gt;GetLastDeploymentHandler&lt;/b&gt;-&gt;getLastDeployment" style="stroke: #000000; stroke-width: 1.0;"/><polygon fill="#000000" points="493.564,293.854,491.9445,284.1392,490.8096,289.681,485.2678,288.5462,493.564,293.854" style="stroke: #000000; stroke-width: 1.0;"/><!--MD5=[e30ef3fbb7c04e4137f58dfe26d99929]
link getMetrics to Dorametrix--><path d="M629.36,324.081 C611.896,343.91 577.165,383.3441 557.821,405.3069 " fill="none" id="getMetrics-&gt;Dorametrix" style="stroke: #000000; stroke-width: 0.5;"/><polygon fill="#000000" points="554.396,409.1958,563.3466,405.0865,557.7011,405.4439,557.3437,399.7984,554.396,409.1958" style="stroke: #000000; stroke-width: 0.5;"/><!--MD5=[9388eb34ee10cac39fd4236a2f9f92b5]
link <b>GetMetricsHandler</b> to DynamoDbRepository--><path d="M659.296,98.143 C642.457,108.377 619.634,121.018 598,129 C504.743,163.41 391.366,183.638 318.946,194.018 " fill="none" id="&lt;b&gt;GetMetricsHandler&lt;/b&gt;-&gt;DynamoDbRepository" style="stroke: #000000; stroke-width: 1.0;"/><polygon fill="#000000" points="313.803,194.748,323.2766,197.4407,318.7532,194.0439,322.15,189.5205,313.803,194.748" style="stroke: #000000; stroke-width: 1.0;"/><!--MD5=[1c6ac967fdb6f524dcd97d6dfadbd943]
link <b>GetMetricsHandler</b> to getMetrics--><path d="M681.544,99.051 C673.136,141.743 651.696,250.608 643.374,292.866 " fill="none" id="&lt;b&gt;GetMetricsHandler&lt;/b&gt;-&gt;getMetrics" style="stroke: #000000; stroke-width: 1.0;"/><polygon fill="#000000" points="642.38,297.913,648.043,289.8551,643.3457,293.0072,640.1937,288.3099,642.38,297.913" style="stroke: #000000; stroke-width: 1.0;"/><script type="text/plantuml"><![CDATA[MD5=[e6573b72883d42fce3e59c4a9cbb9dc4]
@startuml

scale max 1920 width
top to bottom direction

skinparam nodesep 13
skinparam ranksep 25
skinparam monochrome true
skinparam shadowing false
skinparam defaultFontName Tahoma
skinparam defaultFontSize 12
skinparam roundCorner 6
skinparam dpi 150
skinparam arrowColor black
skinparam arrowThickness 0.5
skinparam packageTitleAlignment left

skinparam usecase {
  borderThickness 0.5
}

skinparam rectangle {
  borderThickness 0.5
}

skinparam component {
  borderThickness 1
}


package "Handlers/adapters" {
  (<b>AddEventHandler</b>)
  (<b>AuthorizerHandler</b>)
  (<b>GetLastDeploymentHandler</b>)
  (<b>GetMetricsHandler</b>)
}

package "Domain services" {
  (Dorametrix)
}

package "Domain value objects" {
  (Event)
}

package "Repositories" {
  (DynamoDbRepository)
}

package "Usecases" {
  (createEvent)
  (getLastDeployment)
  (getMetrics)
}

(<b>AddEventHandler</b>) ----[thickness=1]> (createEvent)
(<b>AddEventHandler</b>) ---[thickness=1]> (DynamoDbRepository)
(<b>AddEventHandler</b>) ----[thickness=1]> (Event)
(getLastDeployment) ---> (Dorametrix)
(<b>GetLastDeploymentHandler</b>) ---[thickness=1]> (DynamoDbRepository)
(<b>GetLastDeploymentHandler</b>) ----[thickness=1]> (getLastDeployment)
(getMetrics) ---> (Dorametrix)
(<b>GetMetricsHandler</b>) ---[thickness=1]> (DynamoDbRepository)
(<b>GetMetricsHandler</b>) ----[thickness=1]> (getMetrics)

@enduml


' View and edit on https://arkit.pro
]]></script></g></svg>